<svg width="32" height="33" viewBox="0 0 32 33" fill="none" xmlns="http://www.w3.org/2000/svg">
<path d="M12.6494 16.5002L22.4494 6.70016C22.7827 6.36683 22.9438 5.97239 22.9327 5.51683C22.9216 5.06127 22.7494 4.66683 22.416 4.3335C22.0827 4.00016 21.6882 3.8335 21.2327 3.8335C20.7771 3.8335 20.3827 4.00016 20.0494 4.3335L9.81602 14.6002C9.54936 14.8668 9.34936 15.1668 9.21602 15.5002C9.08269 15.8335 9.01602 16.1668 9.01602 16.5002C9.01602 16.8335 9.08269 17.1668 9.21602 17.5002C9.34936 17.8335 9.54936 18.1335 9.81602 18.4002L20.0827 28.6668C20.416 29.0002 20.8049 29.1613 21.2494 29.1502C21.6938 29.1391 22.0827 28.9668 22.416 28.6335C22.7494 28.3002 22.916 27.9057 22.916 27.4502C22.916 26.9946 22.7494 26.6002 22.416 26.2668L12.6494 16.5002Z" fill="#E1E2E2"/>
</svg>
