<svg width="32" height="32" viewBox="0 0 32 32" fill="none" xmlns="http://www.w3.org/2000/svg">
<path d="M12.6495 16L22.4495 6.19998C22.7828 5.86665 22.9439 5.4722 22.9328 5.01665C22.9217 4.56109 22.7495 4.16665 22.4161 3.83331C22.0828 3.49998 21.6884 3.33331 21.2328 3.33331C20.7773 3.33331 20.3828 3.49998 20.0495 3.83331L9.81614 14.1C9.54948 14.3666 9.34948 14.6666 9.21614 15C9.08281 15.3333 9.01614 15.6666 9.01614 16C9.01614 16.3333 9.08281 16.6666 9.21614 17C9.34948 17.3333 9.54948 17.6333 9.81614 17.9L20.0828 28.1666C20.4161 28.5 20.805 28.6611 21.2495 28.65C21.6939 28.6389 22.0828 28.4666 22.4161 28.1333C22.7495 27.8 22.9161 27.4055 22.9161 26.95C22.9161 26.4944 22.7495 26.1 22.4161 25.7666L12.6495 16Z" fill="#05DFAF"/>
</svg>
