<svg width="32" height="32" viewBox="0 0 32 32" fill="none" xmlns="http://www.w3.org/2000/svg">
<path d="M19.3002 16L9.50023 6.19998C9.1669 5.86665 9.00578 5.4722 9.0169 5.01665C9.02801 4.56109 9.20023 4.16665 9.53356 3.83331C9.8669 3.49998 10.2613 3.33331 10.7169 3.33331C11.1725 3.33331 11.5669 3.49998 11.9002 3.83331L22.1336 14.1C22.4002 14.3666 22.6002 14.6666 22.7336 15C22.8669 15.3333 22.9336 15.6666 22.9336 16C22.9336 16.3333 22.8669 16.6666 22.7336 17C22.6002 17.3333 22.4002 17.6333 22.1336 17.9L11.8669 28.1666C11.5336 28.5 11.1447 28.6611 10.7002 28.65C10.2558 28.6389 9.8669 28.4666 9.53356 28.1333C9.20023 27.8 9.03356 27.4055 9.03356 26.95C9.03356 26.4944 9.20023 26.1 9.53356 25.7666L19.3002 16Z" fill="#05DFAF"/>
</svg>
