<svg width="32" height="33" viewBox="0 0 32 33" fill="none" xmlns="http://www.w3.org/2000/svg">
<path d="M19.3001 16.5002L9.50014 6.70016C9.1668 6.36683 9.00569 5.97239 9.0168 5.51683C9.02791 5.06127 9.20014 4.66683 9.53347 4.3335C9.8668 4.00016 10.2612 3.8335 10.7168 3.8335C11.1724 3.8335 11.5668 4.00016 11.9001 4.3335L22.1335 14.6002C22.4001 14.8668 22.6001 15.1668 22.7335 15.5002C22.8668 15.8335 22.9335 16.1668 22.9335 16.5002C22.9335 16.8335 22.8668 17.1668 22.7335 17.5002C22.6001 17.8335 22.4001 18.1335 22.1335 18.4002L11.8668 28.6668C11.5335 29.0002 11.1446 29.1613 10.7001 29.1502C10.2557 29.1391 9.8668 28.9668 9.53347 28.6335C9.20014 28.3002 9.03347 27.9057 9.03347 27.4502C9.03347 26.9946 9.20014 26.6002 9.53347 26.2668L19.3001 16.5002Z" fill="#E1E2E2"/>
</svg>
