<svg width="36" height="36" viewBox="0 0 36 36" fill="none" xmlns="http://www.w3.org/2000/svg">
<rect width="36" height="36" rx="18" fill="#4DDDBD"/>
<path d="M17.1632 13.3431L11.4132 18.6456C11.2478 18.7981 11.0543 18.8734 10.8325 18.8715C10.6108 18.8695 10.4136 18.7889 10.241 18.6299C10.0799 18.4708 9.9965 18.2906 9.99076 18.0894C9.98501 17.8881 10.0684 17.7079 10.241 17.5488L17.2937 11.0451C17.3979 10.949 17.5077 10.8813 17.6232 10.842C17.7387 10.8025 17.8635 10.7827 17.9975 10.7827C18.1316 10.7827 18.2563 10.8025 18.3718 10.842C18.4873 10.8813 18.5972 10.949 18.7014 11.0451L25.754 17.5488C25.908 17.6908 25.9868 17.8668 25.9904 18.0765C25.9939 18.2863 25.9151 18.4708 25.754 18.6299C25.5814 18.7889 25.3832 18.8684 25.1594 18.8684C24.9355 18.8684 24.7372 18.7889 24.5646 18.6299L18.8318 13.3431V25.0134C18.8318 25.2317 18.7519 25.4145 18.5921 25.5617C18.4324 25.709 18.2343 25.7827 17.9975 25.7827C17.7608 25.7827 17.5626 25.709 17.403 25.5617C17.2431 25.4145 17.1632 25.2317 17.1632 25.0134V13.3431Z" fill="white"/>
</svg>
