<svg width="20" height="20" viewBox="0 0 20 20" fill="none" xmlns="http://www.w3.org/2000/svg">
<path d="M3.58979 16.25C3.16881 16.25 2.81249 16.1042 2.52083 15.8125C2.22916 15.5208 2.08333 15.1645 2.08333 14.7435V5.25646C2.08333 4.83549 2.22916 4.47917 2.52083 4.1875C2.81249 3.89583 3.16881 3.75 3.58979 3.75H7.54166C7.74249 3.75 7.93562 3.78903 8.12104 3.86708C8.30631 3.945 8.46736 4.05236 8.60416 4.18917L9.83166 5.41667H16.4102C16.8312 5.41667 17.1875 5.5625 17.4792 5.85417C17.7708 6.14583 17.9167 6.50215 17.9167 6.92313V14.7435C17.9167 15.1645 17.7708 15.5208 17.4792 15.8125C17.1875 16.1042 16.8312 16.25 16.4102 16.25H3.58979ZM3.58979 15H16.4102C16.4851 15 16.5465 14.976 16.5946 14.9279C16.6426 14.8799 16.6667 14.8184 16.6667 14.7435V6.92313C16.6667 6.84826 16.6426 6.78681 16.5946 6.73875C16.5465 6.6907 16.4851 6.66667 16.4102 6.66667H9.32041L7.72604 5.07208C7.69923 5.04542 7.67118 5.02674 7.64187 5.01604C7.61243 5.00535 7.58166 5 7.54958 5H3.58979C3.51493 5 3.45347 5.02403 3.40541 5.07208C3.35736 5.12014 3.33333 5.1816 3.33333 5.25646V14.7435C3.33333 14.8184 3.35736 14.8799 3.40541 14.9279C3.45347 14.976 3.51493 15 3.58979 15Z" fill="#555756"/>
</svg>
