<svg width="52" height="52" viewBox="0 0 52 52" fill="none" xmlns="http://www.w3.org/2000/svg">
<path fill-rule="evenodd" clip-rule="evenodd" d="M8.72087 43.2791C9.47921 44.0375 10.4056 44.4166 11.5002 44.4166H40.4999C41.5944 44.4166 42.5209 44.0375 43.2792 43.2791C44.0375 42.5208 44.4167 41.5944 44.4167 40.4999V11.5001C44.4167 10.4056 44.0375 9.47915 43.2792 8.72081C42.5209 7.96248 41.5944 7.58331 40.4999 7.58331H11.5002C10.4056 7.58331 9.47921 7.96248 8.72087 8.72081C7.96254 9.47915 7.58337 10.4056 7.58337 11.5001V40.4999C7.58337 41.5944 7.96254 42.5208 8.72087 43.2791ZM40.4999 41.1666H11.5002C11.3333 41.1666 11.1806 41.0971 11.0419 40.9581C10.9029 40.8194 10.8334 40.6667 10.8334 40.4999V11.5001C10.8334 11.3333 10.9029 11.1805 11.0419 11.0419C11.1806 10.9028 11.3333 10.8333 11.5002 10.8333H40.4999C40.6667 10.8333 40.8195 10.9028 40.9582 11.0419C41.0972 11.1805 41.1667 11.3333 41.1667 11.5001V40.4999C41.1667 40.6667 41.0972 40.8194 40.9582 40.9581C40.8195 41.0971 40.6667 41.1666 40.4999 41.1666Z" fill="#C3C3C3"/>
<path fill-rule="evenodd" clip-rule="evenodd" d="M11.5002 41.1666H40.4999C40.6667 41.1666 40.8195 41.0971 40.9582 40.9581C41.0972 40.8194 41.1667 40.6667 41.1667 40.4999V11.5001C41.1667 11.3333 41.0972 11.1805 40.9582 11.0419C40.8195 10.9028 40.6667 10.8333 40.4999 10.8333H11.5002C11.3333 10.8333 11.1806 10.9028 11.0419 11.0419C10.9029 11.1805 10.8334 11.3333 10.8334 11.5001V40.4999C10.8334 40.6667 10.9029 40.8194 11.0419 40.9581C11.1806 41.0971 11.3333 41.1666 11.5002 41.1666ZM24.375 34.6666V27.625H17.3334C16.8722 27.625 16.4862 27.4693 16.1753 27.1581C15.864 26.8471 15.7084 26.4611 15.7084 26C15.7084 25.5388 15.864 25.1528 16.1753 24.8419C16.4862 24.5306 16.8722 24.375 17.3334 24.375H24.375V17.3333C24.375 16.8722 24.5307 16.4861 24.842 16.1752C25.1529 15.864 25.5389 15.7083 26 15.7083C26.4612 15.7083 26.8472 15.864 27.1581 16.1752C27.4694 16.4861 27.625 16.8722 27.625 17.3333V24.375H34.6667C35.1278 24.375 35.5139 24.5306 35.8248 24.8419C36.1361 25.1528 36.2917 25.5388 36.2917 26C36.2917 26.4611 36.1361 26.8471 35.8248 27.1581C35.5139 27.4693 35.1278 27.625 34.6667 27.625H27.625V34.6666C27.625 35.1278 27.4694 35.5138 27.1581 35.8247C26.8472 36.136 26.4612 36.2916 26 36.2916C25.5389 36.2916 25.1529 36.136 24.842 35.8247C24.5307 35.5138 24.375 35.1278 24.375 34.6666Z" fill="#C3C3C3"/>
</svg>
