<svg width="40" height="40" viewBox="0 0 40 40" fill="none" xmlns="http://www.w3.org/2000/svg">
<path fill-rule="evenodd" clip-rule="evenodd" d="M8.84617 31.6667H31.1537C31.282 31.6667 31.3995 31.6132 31.5062 31.5063C31.6131 31.3996 31.6666 31.2821 31.6666 31.1538V8.84629C31.6666 8.71796 31.6131 8.60046 31.5062 8.49379C31.3995 8.38685 31.282 8.33337 31.1537 8.33337H8.84617C8.71784 8.33337 8.60034 8.38685 8.49367 8.49379C8.38672 8.60046 8.33325 8.71796 8.33325 8.84629V31.1538C8.33325 31.2821 8.38672 31.3996 8.49367 31.5063C8.60034 31.6132 8.71784 31.6667 8.84617 31.6667ZM18.7499 26.6667V21.25H13.3333C12.9785 21.25 12.6816 21.1303 12.4424 20.8909C12.203 20.6517 12.0833 20.3548 12.0833 20C12.0833 19.6453 12.203 19.3484 12.4424 19.1092C12.6816 18.8698 12.9785 18.75 13.3333 18.75H18.7499V13.3334C18.7499 12.9787 18.8696 12.6817 19.1091 12.4425C19.3483 12.2031 19.6452 12.0834 19.9999 12.0834C20.3546 12.0834 20.6516 12.2031 20.8908 12.4425C21.1302 12.6817 21.2499 12.9787 21.2499 13.3334V18.75H26.6666C27.0213 18.75 27.3183 18.8698 27.5574 19.1092C27.7969 19.3484 27.9166 19.6453 27.9166 20C27.9166 20.3548 27.7969 20.6517 27.5574 20.8909C27.3183 21.1303 27.0213 21.25 26.6666 21.25H21.2499V26.6667C21.2499 27.0214 21.1302 27.3184 20.8908 27.5575C20.6516 27.797 20.3546 27.9167 19.9999 27.9167C19.6452 27.9167 19.3483 27.797 19.1091 27.5575C18.8696 27.3184 18.7499 27.0214 18.7499 26.6667Z" fill="#05DFAF"/>
<path fill-rule="evenodd" clip-rule="evenodd" d="M6.70825 33.2917C7.29159 33.875 8.00422 34.1667 8.84617 34.1667H31.1537C31.9956 34.1667 32.7083 33.875 33.2916 33.2917C33.8749 32.7084 34.1666 31.9957 34.1666 31.1538V8.84629C34.1666 8.00435 33.8749 7.29171 33.2916 6.70837C32.7083 6.12504 31.9956 5.83337 31.1537 5.83337H8.84617C8.00422 5.83337 7.29159 6.12504 6.70825 6.70837C6.12492 7.29171 5.83325 8.00435 5.83325 8.84629V31.1538C5.83325 31.9957 6.12492 32.7084 6.70825 33.2917ZM31.1537 31.6667H8.84617C8.71784 31.6667 8.60034 31.6132 8.49367 31.5063C8.38672 31.3996 8.33325 31.2821 8.33325 31.1538V8.84629C8.33325 8.71796 8.38672 8.60046 8.49367 8.49379C8.60034 8.38685 8.71784 8.33337 8.84617 8.33337H31.1537C31.282 8.33337 31.3995 8.38685 31.5062 8.49379C31.6131 8.60046 31.6666 8.71796 31.6666 8.84629V31.1538C31.6666 31.2821 31.6131 31.3996 31.5062 31.5063C31.3995 31.6132 31.282 31.6667 31.1537 31.6667Z" fill="#05DFAF"/>
</svg>
