<svg width="40" height="40" viewBox="0 0 40 40" fill="none" xmlns="http://www.w3.org/2000/svg">
<path d="M31.6667 33.3332C32.5507 33.3332 33.3986 32.982 34.0237 32.3569C34.6488 31.7318 35 30.884 35 29.9999V13.3332H28.3333V29.9999C28.3333 31.111 29 33.3332 31.6667 33.3332Z" fill="#05DFAF"/>
<path d="M5 6.66656V29.9999C5 30.884 5.35119 31.7318 5.97631 32.3569C6.60143 32.982 7.44928 33.3332 8.33333 33.3332H31.6667M31.6667 33.3332C32.5507 33.3332 33.3986 32.982 34.0237 32.3569C34.6488 31.7318 35 30.884 35 29.9999V13.3332H28.3333V29.9999C28.3333 31.111 29 33.3332 31.6667 33.3332Z" stroke="#9B9B9B" stroke-width="2.4375" stroke-linecap="round" stroke-linejoin="round"/>
<path d="M5 6.66656H28.3333V29.9999C28.3333 30.884 28.6845 31.7318 29.3096 32.3569C29.9348 32.982 30.7826 33.3332 31.6667 33.3332" stroke="#9B9B9B" stroke-width="2.4375" stroke-linecap="round" stroke-linejoin="round"/>
<path d="M21.6667 13.3333H11.6667M21.6667 19.9999H15.0001" stroke="#05DFAF" stroke-width="2.4375" stroke-linecap="round" stroke-linejoin="round"/>
</svg>
