<svg width="52" height="52" viewBox="0 0 52 52" fill="none" xmlns="http://www.w3.org/2000/svg">
<path fill-rule="evenodd" clip-rule="evenodd" d="M42.6667 9.75C43.7612 9.75 44.6877 10.1292 45.446 10.8875C46.2043 11.6458 46.5835 12.5723 46.5835 13.6668L46.5835 38.3332C46.5835 39.4277 46.2043 40.3542 45.446 41.1125C44.6877 41.8708 43.7612 42.25 42.6667 42.25L9.33362 42.25C8.23909 42.25 7.31266 41.8708 6.55433 41.1125C5.79599 40.3542 5.41683 39.4277 5.41683 38.3332L5.41683 13.6668C5.41683 12.5723 5.79599 11.6458 6.55433 10.8875C7.31266 10.1292 8.23909 9.75 9.33362 9.75L42.6667 9.75ZM15.7713 39.8125L15.7713 32.4751L15.7713 29.2251L15.7713 22.7749L15.7713 19.5249L15.7713 12.1875L8.52112 12.1875C8.32648 12.1875 8.16669 12.25 8.04175 12.3749C7.9168 12.4999 7.85433 12.6597 7.85433 12.8543L7.85433 19.5249L7.85433 22.7749L7.85433 29.2251L7.85433 32.4751L7.85433 39.1457C7.85433 39.3404 7.91681 39.5001 8.04175 39.6251C8.16669 39.75 8.32648 39.8125 8.52112 39.8125L15.7713 39.8125ZM43.4792 12.1875L18.2083 12.1875L18.2083 39.8125L43.4792 39.8125C43.6738 39.8125 43.8336 39.75 43.9586 39.6251C44.0835 39.5001 44.146 39.3403 44.146 39.1457L44.146 12.8543C44.146 12.6597 44.0835 12.4999 43.9586 12.3749C43.8336 12.25 43.6738 12.1875 43.4792 12.1875Z" fill="#9B9B9B"/>
<path d="M15.7713 32.4751L7.85433 32.4751L7.85433 39.1457C7.85433 39.3404 7.91681 39.5001 8.04175 39.6251C8.16669 39.75 8.32648 39.8125 8.52112 39.8125L15.7713 39.8125L15.7713 32.4751Z" fill="#05DFAF"/>
<path d="M7.85433 32.4751L15.7713 32.4751L15.7713 29.2251L7.85433 29.2251L7.85433 32.4751Z" fill="#05DFAF"/>
<path d="M15.7713 22.7749L7.85433 22.7749L7.85433 29.2251L15.7713 29.2251L15.7713 22.7749Z" fill="#05DFAF"/>
<path d="M7.85433 22.7749L15.7713 22.7749L15.7713 19.5249L7.85433 19.5249L7.85433 22.7749Z" fill="#05DFAF"/>
<path d="M15.7713 12.1875L8.52112 12.1875C8.32648 12.1875 8.16669 12.25 8.04175 12.3749C7.9168 12.4999 7.85433 12.6597 7.85433 12.8543L7.85433 19.5249L15.7713 19.5249L15.7713 12.1875Z" fill="#05DFAF"/>
</svg>
