<svg width="40" height="40" viewBox="0 0 40 40" fill="none" xmlns="http://www.w3.org/2000/svg">
<path fill-rule="evenodd" clip-rule="evenodd" d="M32.8203 7.5C33.6623 7.5 34.3749 7.79167 34.9582 8.375C35.5416 8.95833 35.8332 9.67097 35.8333 10.5129L35.8333 29.4871C35.8333 30.329 35.5416 31.0417 34.9583 31.625C34.3749 32.2083 33.6623 32.5 32.8203 32.5L7.1795 32.5C6.33756 32.5 5.62492 32.2083 5.04159 31.625C4.45825 31.0417 4.16659 30.329 4.16659 29.4871L4.16659 10.5129C4.16659 9.67097 4.45825 8.95833 5.04158 8.375C5.62492 7.79167 6.33755 7.5 7.1795 7.5L32.8203 7.5ZM12.1316 30.625L12.1316 24.9808L12.1316 22.4808L12.1316 17.5192L12.1316 15.0192L12.1316 9.375L6.5545 9.375C6.40478 9.375 6.28186 9.42306 6.18575 9.51917C6.08964 9.61528 6.04159 9.73819 6.04159 9.88792L6.04159 15.0192L6.04159 17.5192L6.04159 22.4808L6.04159 24.9808L6.04159 30.1121C6.04159 30.2618 6.08964 30.3847 6.18575 30.4808C6.28186 30.5769 6.40478 30.625 6.5545 30.625L12.1316 30.625ZM33.4453 9.375L14.0062 9.375L14.0062 30.625L33.4453 30.625C33.5951 30.625 33.718 30.5769 33.8141 30.4808C33.9102 30.3847 33.9583 30.2618 33.9583 30.1121L33.9583 9.88791C33.9583 9.73819 33.9102 9.61528 33.8141 9.51917C33.718 9.42306 33.5951 9.375 33.4453 9.375Z" fill="#B9BBBD"/>
</svg>
