<svg width="40" height="40" viewBox="0 0 40 40" fill="none" xmlns="http://www.w3.org/2000/svg">
<path d="M18.1537 35.8334C17.5854 35.8334 17.0946 35.6448 16.6812 35.2676C16.2676 34.8906 16.016 34.4265 15.9262 33.8751L15.5192 30.7563C15.0728 30.6069 14.615 30.3976 14.1458 30.1284C13.6769 29.859 13.2576 29.5705 12.8879 29.263L9.99999 30.4905C9.47638 30.7213 8.95027 30.7437 8.42166 30.5576C7.89277 30.3717 7.48193 30.0342 7.18916 29.5451L5.31082 26.2884C5.01805 25.7992 4.93374 25.2816 5.05791 24.7355C5.1818 24.1897 5.46596 23.7394 5.91041 23.3847L8.40707 21.5097C8.36874 21.2619 8.34152 21.013 8.32541 20.763C8.3093 20.513 8.30124 20.264 8.30124 20.0159C8.30124 19.779 8.3093 19.5381 8.32541 19.2934C8.34152 19.0487 8.36874 18.7811 8.40707 18.4905L5.91041 16.6155C5.46596 16.2608 5.18443 15.8077 5.06582 15.2563C4.94721 14.7052 5.0343 14.1849 5.32707 13.6955L7.18916 10.4872C7.48193 10.0086 7.89277 9.67369 8.42166 9.48258C8.95027 9.29119 9.47638 9.31091 9.99999 9.54175L12.8717 10.7534C13.2736 10.4351 13.7026 10.144 14.1587 9.88008C14.6149 9.61619 15.063 9.40411 15.5033 9.24383L15.9262 6.12508C16.016 5.57369 16.2676 5.10953 16.6812 4.73258C17.0946 4.35536 17.5854 4.16675 18.1537 4.16675H21.8462C22.4146 4.16675 22.9054 4.35536 23.3187 4.73258C23.7324 5.10953 23.984 5.57369 24.0737 6.12508L24.4808 9.25966C24.9808 9.44133 25.4332 9.65341 25.8379 9.89591C26.2429 10.1384 26.6517 10.4242 27.0642 10.7534L30.0162 9.54175C30.5396 9.31091 31.0657 9.29119 31.5946 9.48258C32.1235 9.67369 32.5342 10.0086 32.8267 10.4872L34.6892 13.7117C34.9819 14.2009 35.0662 14.7186 34.9421 15.2647C34.8182 15.8105 34.534 16.2608 34.0896 16.6155L31.5287 18.5384C31.5885 18.8076 31.6211 19.0592 31.6267 19.2934C31.6319 19.5273 31.6346 19.7629 31.6346 20.0001C31.6346 20.2265 31.6292 20.4567 31.6183 20.6909C31.6078 20.9248 31.5694 21.1924 31.5033 21.4938L34.0158 23.3847C34.4603 23.7394 34.7472 24.1897 34.8767 24.7355C35.0058 25.2816 34.924 25.7992 34.6312 26.2884L32.7433 29.5288C32.4508 30.0183 32.0375 30.3559 31.5033 30.5417C30.9692 30.7276 30.4403 30.7051 29.9167 30.4742L27.0642 29.2467C26.6517 29.5759 26.2307 29.867 25.8012 30.1201C25.3718 30.3734 24.9317 30.5802 24.4808 30.7405L24.0737 33.8751C23.984 34.4265 23.7324 34.8906 23.3187 35.2676C22.9054 35.6448 22.4146 35.8334 21.8462 35.8334H18.1537ZM20.0192 25.0001C21.4058 25.0001 22.5858 24.5134 23.5592 23.5401C24.5325 22.5667 25.0192 21.3867 25.0192 20.0001C25.0192 18.6134 24.5325 17.4334 23.5592 16.4601C22.5858 15.4867 21.4058 15.0001 20.0192 15.0001C18.6153 15.0001 17.431 15.4867 16.4662 16.4601C15.5015 17.4334 15.0192 18.6134 15.0192 20.0001C15.0192 21.3867 15.5015 22.5667 16.4662 23.5401C17.431 24.5134 18.6153 25.0001 20.0192 25.0001Z" fill="#C3C3C3"/>
</svg>
