<svg width="40" height="40" viewBox="0 0 40 40" fill="none" xmlns="http://www.w3.org/2000/svg">
<path d="M18.1537 35.8334C17.5854 35.8334 17.0946 35.6447 16.6812 35.2675C16.2676 34.8906 16.016 34.4264 15.9262 33.875L15.5192 30.7563C15.0728 30.6068 14.615 30.3975 14.1458 30.1284C13.6769 29.8589 13.2576 29.5704 12.8879 29.2629L9.99999 30.4904C9.47638 30.7213 8.95027 30.7436 8.42166 30.5575C7.89277 30.3717 7.48193 30.0342 7.18916 29.545L5.31082 26.2884C5.01805 25.7992 4.93374 25.2815 5.05791 24.7354C5.1818 24.1896 5.46596 23.7393 5.91041 23.3846L8.40707 21.5096C8.36874 21.2618 8.34152 21.0129 8.32541 20.7629C8.3093 20.5129 8.30124 20.2639 8.30124 20.0159C8.30124 19.7789 8.3093 19.5381 8.32541 19.2934C8.34152 19.0486 8.36874 18.781 8.40707 18.4904L5.91041 16.6154C5.46596 16.2607 5.18443 15.8077 5.06582 15.2563C4.94721 14.7052 5.0343 14.1849 5.32707 13.6954L7.18916 10.4871C7.48193 10.0085 7.89277 9.67363 8.42166 9.48252C8.95027 9.29113 9.47638 9.31085 9.99999 9.54169L12.8717 10.7534C13.2736 10.435 13.7026 10.1439 14.1587 9.88002C14.6149 9.61613 15.063 9.40405 15.5033 9.24377L15.9262 6.12502C16.016 5.57363 16.2676 5.10947 16.6812 4.73252C17.0946 4.3553 17.5854 4.16669 18.1537 4.16669H21.8462C22.4146 4.16669 22.9054 4.3553 23.3187 4.73252C23.7324 5.10947 23.984 5.57363 24.0737 6.12502L24.4808 9.2596C24.9808 9.44127 25.4332 9.65335 25.8379 9.89585C26.2429 10.1384 26.6517 10.4242 27.0642 10.7534L30.0162 9.54169C30.5396 9.31085 31.0657 9.29113 31.5946 9.48252C32.1235 9.67363 32.5342 10.0085 32.8267 10.4871L34.6892 13.7117C34.9819 14.2009 35.0662 14.7185 34.9421 15.2646C34.8182 15.8104 34.534 16.2607 34.0896 16.6154L31.5287 18.5384C31.5885 18.8075 31.6211 19.0592 31.6267 19.2934C31.6319 19.5272 31.6346 19.7628 31.6346 20C31.6346 20.2264 31.6292 20.4567 31.6183 20.6909C31.6078 20.9247 31.5694 21.1924 31.5033 21.4938L34.0158 23.3846C34.4603 23.7393 34.7472 24.1896 34.8767 24.7354C35.0058 25.2815 34.924 25.7992 34.6312 26.2884L32.7433 29.5288C32.4508 30.0182 32.0375 30.3559 31.5033 30.5417C30.9692 30.7275 30.4403 30.705 29.9167 30.4742L27.0642 29.2467C26.6517 29.5759 26.2307 29.867 25.8012 30.12C25.3718 30.3734 24.9317 30.5802 24.4808 30.7404L24.0737 33.875C23.984 34.4264 23.7324 34.8906 23.3187 35.2675C22.9054 35.6447 22.4146 35.8334 21.8462 35.8334H18.1537ZM20.0192 25C21.4058 25 22.5858 24.5134 23.5592 23.54C24.5325 22.5667 25.0192 21.3867 25.0192 20C25.0192 18.6134 24.5325 17.4334 23.5592 16.46C22.5858 15.4867 21.4058 15 20.0192 15C18.6153 15 17.431 15.4867 16.4662 16.46C15.5015 17.4334 15.0192 18.6134 15.0192 20C15.0192 21.3867 15.5015 22.5667 16.4662 23.54C17.431 24.5134 18.6153 25 20.0192 25Z" fill="#05DFAF"/>
</svg>
