<svg width="28" height="28" viewBox="0 0 28 28" fill="none" xmlns="http://www.w3.org/2000/svg">
<g id="icon/add">
<path id="Vector" d="M13.125 14.875V18.6667C13.125 18.915 13.2088 19.1228 13.3764 19.2902C13.5438 19.4579 13.7517 19.5417 14 19.5417C14.2483 19.5417 14.4562 19.4579 14.6236 19.2902C14.7912 19.1228 14.875 18.915 14.875 18.6667V14.875H18.6667C18.915 14.875 19.1228 14.7912 19.2902 14.6236C19.4579 14.4562 19.5417 14.2483 19.5417 14C19.5417 13.7517 19.4579 13.5438 19.2902 13.3764C19.1228 13.2088 18.915 13.125 18.6667 13.125H14.875V9.33333C14.875 9.08502 14.7912 8.87716 14.6236 8.70974C14.4562 8.54213 14.2483 8.45833 14 8.45833C13.7517 8.45833 13.5438 8.54213 13.3764 8.70974C13.2088 8.87716 13.125 9.08502 13.125 9.33333V13.125H9.33333C9.08502 13.125 8.87716 13.2088 8.70974 13.3764C8.54213 13.5438 8.45833 13.7517 8.45833 14C8.45833 14.2483 8.54213 14.4562 8.70974 14.6236C8.87716 14.7912 9.08502 14.875 9.33333 14.875H13.125ZM6.19237 23.9167C5.60301 23.9167 5.10416 23.7125 4.69583 23.3042C4.28749 22.8958 4.08333 22.397 4.08333 21.8076V6.19237C4.08333 5.60301 4.28749 5.10416 4.69583 4.69583C5.10416 4.28749 5.60301 4.08333 6.19237 4.08333H21.8076C22.397 4.08333 22.8958 4.28749 23.3042 4.69583C23.7125 5.10416 23.9167 5.60301 23.9167 6.19237V21.8076C23.9167 22.397 23.7125 22.8958 23.3042 23.3042C22.8958 23.7125 22.397 23.9167 21.8076 23.9167H6.19237ZM6.19237 22.1667H21.8076C21.8975 22.1667 21.9797 22.1292 22.0544 22.0544C22.1292 21.9797 22.1667 21.8975 22.1667 21.8076V6.19237C22.1667 6.10254 22.1292 6.02029 22.0544 5.94562C21.9797 5.87076 21.8975 5.83333 21.8076 5.83333H6.19237C6.10254 5.83333 6.02029 5.87076 5.94562 5.94562C5.87076 6.02029 5.83333 6.10254 5.83333 6.19237V21.8076C5.83333 21.8975 5.87076 21.9797 5.94562 22.0544C6.02029 22.1292 6.10254 22.1667 6.19237 22.1667Z" fill="#7C7266"/>
</g>
</svg>
