<svg width="146" height="24" viewBox="0 0 146 24" fill="none" xmlns="http://www.w3.org/2000/svg">
<g clip-path="url(#clip0_1_15)">
<path d="M33.232 12.3149L32.9382 12.1287C31.9415 11.1385 30.5556 10.7067 28.7013 10.8176C27.1566 10.9127 25.9336 11.5227 24.9965 12.0891C24.9965 12.0733 24.9965 12.0614 24.9965 12.0455C24.9965 11.5623 25.0521 11.0394 25.1037 10.5324C25.1553 10.0175 25.2149 9.49067 25.2149 8.99554C25.2149 8.50041 25.1593 8.00527 24.9806 7.59333C24.9369 7.48638 24.8376 7.42696 24.7145 7.42696C24.2142 7.43884 23.2414 7.77949 23.0031 7.98547L22.876 8.2667C22.8681 8.81729 22.745 10.3581 22.6219 10.5443C22.6259 10.5364 22.5584 10.7305 22.5584 10.7305C22.3479 12.9289 22.3439 14.8579 22.5385 16.5176C22.5623 16.6839 22.88 16.9335 23.1302 17.0246C23.4002 17.1236 24.2499 16.8978 24.7384 16.7156C24.7304 16.7156 24.921 16.6879 24.921 16.6879C25.0759 16.6721 25.1672 16.5413 25.1593 16.3671L25.1712 15.8917C25.5246 14.4618 26.9541 12.7506 28.6417 12.4931C29.5987 12.3426 30.3531 12.5882 30.9488 13.2339C31.0282 13.3487 31.2029 14.3826 30.5755 15.563C30.1069 16.4384 29.1698 17.1791 27.9349 17.6385C26.7675 18.0822 25.4809 18.2604 23.8965 18.205C23.829 18.1614 22.4114 17.2028 22.4114 17.2028C21.1527 16.3195 19.5882 15.2223 18.1706 14.6876C17.9204 14.5925 17.4757 14.2202 17.2057 14.0023L17.0587 13.8835C16.2408 13.2299 14.6842 12.1961 13.4373 11.3642C13.4373 11.3642 12.8735 10.9879 12.7663 10.9127C12.7663 10.8652 12.7663 10.7701 12.7663 10.7701C12.802 10.7305 13.5882 10.2631 13.5882 10.2631C14.6882 9.62138 15.1964 9.30846 15.3036 9.14606C15.2798 9.17378 15.4506 9.05891 15.4506 9.05891C15.4625 9.05495 18.1746 7.52203 18.1746 7.52203C20.7913 6.08813 23.7536 4.46014 25.3102 2.85591L25.3856 2.61033L25.4213 2.39247C25.5246 2.04786 25.5286 1.78643 25.4452 1.48143C25.4213 1.39428 25.3419 1.2913 25.2347 1.27545C24.0196 1.15266 22.4512 1.88149 21.0256 3.21637C20.704 3.51741 20.434 3.66396 20.1481 3.81845L19.9297 3.94124C18.3572 4.83247 14.8152 7.0269 12.9569 8.21125C13.08 6.2228 13.4492 3.39065 13.9019 1.03383L13.8503 0.752593L13.6597 0.396099L13.5168 0.142592L13.477 0.130709C13.1078 -0.0554608 12.806 0.0197991 12.5836 0.0752538L12.2143 0.209929L11.718 0.388177C11.6187 0.407982 11.5512 0.467398 11.5154 0.562463C10.63 2.69747 9.89137 6.21092 9.71666 9.0193C7.94566 7.89833 6.30967 7.09027 5.50756 6.69813L5.48374 6.68624L5.38844 6.66644C5.09856 6.63079 4.74913 6.41689 4.41161 6.21092C4.37587 6.19111 3.73656 5.7752 3.73656 5.7752L2.70812 5.11767L2.4381 5.05429C1.99734 5.12955 1.14757 5.69994 0.897411 6.08813C0.865645 6.13962 0.849761 6.19508 0.849761 6.25053C0.849761 6.33371 0.873586 6.41293 0.897411 6.49611L0.941091 6.70605L0.988741 6.8328C1.48113 7.33586 2.72797 8.1756 3.94702 8.82917L5.36064 9.57781L7.52475 10.7582L7.89404 11.0513L8.14817 11.1979C8.14817 11.1979 8.17597 11.2137 8.19582 11.2256C7.62005 11.6098 4.25675 13.8478 4.25675 13.8478L2.18794 15.2183C1.99336 15.353 1.17537 15.7174 0.992712 15.7887C0.544006 15.9709 0.202514 16.2522 0.063534 16.5532L0.0079422 16.6721L0.063534 16.7513L0.222368 16.8701L0.432823 17.0087L0.663131 17.1632L0.877557 17.1989C1.24287 17.2108 1.77894 17.0048 2.78753 16.5651C3.71274 16.1571 6.22628 14.644 7.30238 13.9983L7.75903 13.725C7.94963 13.7409 8.15611 13.5824 8.34274 13.4398C8.55717 13.2695 9.02573 12.9804 9.31163 12.8536C9.31957 12.8536 9.48238 12.7585 9.63724 12.6754C9.63724 12.7229 9.63724 12.7981 9.63724 12.7981C9.68489 16.0779 9.87152 18.4624 10.2329 20.3004V20.3321L10.2726 20.4073C10.4473 20.6648 10.6498 21.4451 10.8285 22.1304L11.2375 23.5009L11.3526 23.6277C11.5869 23.7861 12.2977 24.0594 12.7742 24.004L12.8933 23.9881L12.9688 23.8217C13.0085 23.6158 13.0244 23.4138 13.0244 23.1919C13.0244 22.9424 13.0045 22.6651 12.9847 22.3284L12.9529 21.8333C12.802 19.5438 12.6511 16.2363 12.6511 14.038V13.8637C13.0442 14.1053 14.7477 15.1787 14.7477 15.1787C17.6504 17.0563 22.0382 19.8963 24.6867 20.645C24.8257 20.6846 24.9687 20.6529 25.0719 20.5578C25.0719 20.5539 25.4809 20.2964 25.4809 20.2964L25.5564 20.2647C25.7072 20.1934 25.8105 19.936 25.8264 19.6587C28.062 19.5478 31.1751 18.6882 32.8429 16.5968C33.4861 15.7848 33.78 14.7945 33.78 13.9468C33.78 13.2497 33.5854 12.6476 33.236 12.3189" fill="#F8B500"/>
<path d="M87.5015 10.4096V12.9724H93.5253V19.6389H91.4684V14.747H79.3772V12.9724H85.4486V10.4096H78.1145V8.63904H91.3731V5.0939H79.5996V3.33124H93.434V8.62716H94.9072V10.4096H87.5015Z" fill="#7C7266"/>
<path d="M104.675 9.98976H99.0249V5.35533H104.675V9.98976ZM106.72 3.57286H96.976V11.7802H106.72V3.57286Z" fill="#7C7266"/>
<path d="M111.759 19.5755H98.8303V13.5428H100.891V17.797H111.759V19.5755Z" fill="#7C7266"/>
<path d="M111.605 3.18073H109.556V13.9548H111.605V3.18073Z" fill="#7C7266"/>
<path d="M130.212 13.5389V11.7683H113.431V13.5389H115.246V19.5715H128.671V17.801H117.295V13.5389H130.212Z" fill="#7C7266"/>
<path d="M121.822 8.98762C119.697 8.98762 117.982 8.25482 117.982 6.61495C117.982 4.97507 119.697 4.2502 121.822 4.2502C123.946 4.2502 125.661 4.99488 125.661 6.61495C125.661 8.23502 123.938 8.98762 121.822 8.98762ZM121.822 2.38058C118.51 2.38058 115.822 3.77883 115.822 6.61891C115.822 9.45898 118.51 10.8612 121.822 10.8612C125.133 10.8612 127.825 9.44314 127.825 6.61891C127.825 3.79468 125.137 2.38058 121.822 2.38058Z" fill="#7C7266"/>
<path d="M140.814 11.2573H142.807V8.02113H143.947V11.7802H145.944V3.18073H143.947V6.31392H142.807V3.18073H140.814V11.2573Z" fill="#7C7266"/>
<path d="M139.897 3.9056H136.267V2.46378H134.219V3.9056H130.561V5.64054H132.023C131.296 6.19508 130.847 7.00314 130.847 8.07262C130.847 10.3027 132.809 11.4276 135.227 11.4276C137.645 11.4276 139.607 10.2987 139.607 8.07262C139.607 7.00314 139.158 6.19508 138.432 5.64054H139.893V3.9056H139.897ZM135.231 9.55406C133.976 9.55406 132.964 9.01535 132.964 7.79931C132.964 6.58327 133.976 6.03664 135.231 6.03664C136.486 6.03664 137.494 6.59119 137.494 7.79931C137.494 9.00743 136.478 9.55406 135.231 9.55406Z" fill="#7C7266"/>
<path d="M140.079 18.4426C137.983 18.4426 136.283 17.7099 136.283 16.0621C136.283 14.4143 137.983 13.6854 140.079 13.6854C142.176 13.6854 143.876 14.4301 143.876 16.0621C143.876 17.694 142.176 18.4426 140.079 18.4426ZM140.087 11.8554C136.815 11.8554 134.167 13.2418 134.167 16.07C134.167 18.8982 136.811 20.2806 140.087 20.2806C143.363 20.2806 146.004 18.8704 146.004 16.07C146.004 13.2695 143.355 11.8554 140.087 11.8554Z" fill="#7C7266"/>
<path d="M59.1695 3.35896H67.2105C71.0344 3.35896 73.0357 4.6265 73.0357 7.39527C73.0357 9.36392 71.6579 10.7226 69.8233 11.0909V11.1583C72.456 11.4712 73.6989 13.1903 73.6989 15.1352C73.6989 17.5752 71.912 19.6785 67.4646 19.6785H59.1695V3.35896ZM61.7784 10.2353H67.0834C69.057 10.2353 70.5103 9.49067 70.5103 7.75177C70.5103 6.23469 69.7916 5.22066 66.7817 5.22066H61.7744V10.2353H61.7784ZM61.7784 17.8287H66.9206C70.1132 17.8287 70.959 16.5849 70.959 15.0045C70.959 13.1309 69.6605 12.0931 66.7817 12.0931H61.7744V17.8326L61.7784 17.8287Z" fill="#7C7266"/>
<path d="M41.4755 3.35896H44.0883V10.6631L52.8797 3.35896H56.5806L47.2888 10.7305L57.3509 19.6824H53.654L44.0883 10.9365V19.6824H41.4755V3.35896Z" fill="#7C7266"/>
</g>
<defs>
<clipPath id="clip0_1_15">
<rect width="146" height="24" fill="white"/>
</clipPath>
</defs>
</svg>
