<svg width="28" height="28" viewBox="0 0 28 28" fill="none" xmlns="http://www.w3.org/2000/svg">
<path fill-rule="evenodd" clip-rule="evenodd" d="M6.19237 22.1666H21.8076C21.8975 22.1666 21.9797 22.1292 22.0544 22.0544C22.1292 21.9797 22.1667 21.8974 22.1667 21.8076V6.19235C22.1667 6.10252 22.1292 6.02027 22.0544 5.9456C21.9797 5.87074 21.8975 5.83331 21.8076 5.83331H6.19237C6.10254 5.83331 6.02029 5.87074 5.94562 5.9456C5.87076 6.02027 5.83333 6.10252 5.83333 6.19235V21.8076C5.83333 21.8974 5.87076 21.9797 5.94562 22.0544C6.02029 22.1292 6.10254 22.1666 6.19237 22.1666ZM13.125 18.6666V14.875H9.33333C9.08502 14.875 8.87716 14.7912 8.70974 14.6236C8.54213 14.4561 8.45833 14.2483 8.45833 14C8.45833 13.7517 8.54213 13.5438 8.70974 13.3764C8.87716 13.2088 9.08502 13.125 9.33333 13.125H13.125V9.33331C13.125 9.08501 13.2088 8.87715 13.3764 8.70973C13.5438 8.54212 13.7517 8.45831 14 8.45831C14.2483 8.45831 14.4562 8.54212 14.6236 8.70973C14.7912 8.87715 14.875 9.08501 14.875 9.33331V13.125H18.6667C18.915 13.125 19.1228 13.2088 19.2902 13.3764C19.4579 13.5438 19.5417 13.7517 19.5417 14C19.5417 14.2483 19.4579 14.4561 19.2902 14.6236C19.1228 14.7912 18.915 14.875 18.6667 14.875H14.875V18.6666C14.875 18.915 14.7912 19.1228 14.6236 19.2902C14.4562 19.4578 14.2483 19.5416 14 19.5416C13.7517 19.5416 13.5438 19.4578 13.3764 19.2902C13.2088 19.1228 13.125 18.915 13.125 18.6666Z" fill="#7C7266"/>
<path fill-rule="evenodd" clip-rule="evenodd" d="M4.69583 23.3041C5.10416 23.7125 5.60301 23.9166 6.19237 23.9166H21.8076C22.397 23.9166 22.8958 23.7125 23.3042 23.3041C23.7125 22.8958 23.9167 22.397 23.9167 21.8076V6.19235C23.9167 5.60299 23.7125 5.10415 23.3042 4.69581C22.8958 4.28748 22.397 4.08331 21.8076 4.08331H6.19237C5.60301 4.08331 5.10416 4.28748 4.69583 4.69581C4.28749 5.10415 4.08333 5.60299 4.08333 6.19235V21.8076C4.08333 22.397 4.28749 22.8958 4.69583 23.3041ZM21.8076 22.1666H6.19237C6.10254 22.1666 6.02029 22.1292 5.94562 22.0544C5.87076 21.9797 5.83333 21.8974 5.83333 21.8076V6.19235C5.83333 6.10252 5.87076 6.02027 5.94562 5.9456C6.02029 5.87074 6.10254 5.83331 6.19237 5.83331H21.8076C21.8975 5.83331 21.9797 5.87074 22.0544 5.9456C22.1292 6.02027 22.1667 6.10252 22.1667 6.19235V21.8076C22.1667 21.8974 22.1292 21.9797 22.0544 22.0544C21.9797 22.1292 21.8975 22.1666 21.8076 22.1666Z" fill="#7C7266"/>
</svg>
