<svg width="36" height="36" viewBox="0 0 36 36" fill="none" xmlns="http://www.w3.org/2000/svg">
<rect width="36" height="36" rx="18" fill="#EED114"/>
<path d="M17.1633 13.3431L11.4132 18.6456C11.2479 18.7981 11.0543 18.8735 10.8326 18.8716C10.6109 18.8695 10.4137 18.789 10.2411 18.63C10.08 18.4708 9.99656 18.2906 9.99082 18.0894C9.98507 17.8882 10.0685 17.708 10.2411 17.5488L17.2937 11.0451C17.3979 10.949 17.5078 10.8813 17.6233 10.842C17.7388 10.8025 17.8635 10.7828 17.9976 10.7828C18.1316 10.7828 18.2564 10.8025 18.3719 10.842C18.4874 10.8813 18.5972 10.949 18.7014 11.0451L25.754 17.5488C25.9081 17.6909 25.9869 17.8668 25.9904 18.0766C25.9939 18.2864 25.9152 18.4708 25.754 18.63C25.5814 18.789 25.3833 18.8685 25.1595 18.8685C24.9355 18.8685 24.7373 18.789 24.5647 18.63L18.8318 13.3431V25.0134C18.8318 25.2318 18.7519 25.4145 18.5921 25.5617C18.4325 25.7091 18.2343 25.7828 17.9976 25.7828C17.7608 25.7828 17.5626 25.7091 17.403 25.5617C17.2432 25.4145 17.1633 25.2318 17.1633 25.0134V13.3431Z" fill="#7C7266"/>
</svg>
