<svg width="28" height="28" viewBox="0 0 28 28" fill="none" xmlns="http://www.w3.org/2000/svg">
<g id="btn/sideBar">
<path id="Vector" fill-rule="evenodd" clip-rule="evenodd" d="M22.9743 5.25C23.5636 5.25 24.0625 5.45417 24.4708 5.8625C24.8792 6.27083 25.0833 6.76968 25.0833 7.35904L25.0833 20.641C25.0833 21.2303 24.8792 21.7292 24.4708 22.1375C24.0625 22.5458 23.5636 22.75 22.9743 22.75L5.0257 22.75C4.43634 22.75 3.93749 22.5458 3.52916 22.1375C3.12083 21.7292 2.91666 21.2303 2.91666 20.641L2.91666 7.35904C2.91666 6.76968 3.12083 6.27084 3.52916 5.8625C3.93749 5.45417 4.43634 5.25 5.0257 5.25L22.9743 5.25ZM8.05466 21L8.05466 17.4866L8.05466 15.7366L8.05466 12.2634L8.05466 10.5134L8.05466 7L5.0257 7C4.9209 7 4.83485 7.03364 4.76758 7.10092C4.7003 7.1682 4.66666 7.25424 4.66666 7.35904L4.66666 10.5134L4.66666 12.2634L4.66666 15.7366L4.66666 17.4866L4.66666 20.641C4.66666 20.7458 4.7003 20.8318 4.76758 20.8991C4.83486 20.9664 4.9209 21 5.0257 21L8.05466 21ZM22.9743 7L9.80437 7L9.80437 21L22.9743 21C23.0791 21 23.1651 20.9664 23.2324 20.8991C23.2997 20.8318 23.3333 20.7458 23.3333 20.641L23.3333 7.35904C23.3333 7.25424 23.2997 7.16819 23.2324 7.10092C23.1651 7.03364 23.0791 7 22.9743 7Z" fill="#7C7266"/>
</g>
</svg>
