<svg width="28" height="28" viewBox="0 0 28 28" fill="none" xmlns="http://www.w3.org/2000/svg">
<g id="btn/sideBar">
<g id="Vector">
<path fill-rule="evenodd" clip-rule="evenodd" d="M24.4708 5.8625C24.0625 5.45417 23.5636 5.25 22.9743 5.25L5.0257 5.25C4.43634 5.25 3.93749 5.45417 3.52916 5.8625C3.12083 6.27084 2.91666 6.76968 2.91666 7.35904L2.91666 20.641C2.91666 21.2303 3.12083 21.7292 3.52916 22.1375C3.93749 22.5458 4.43634 22.75 5.0257 22.75L22.9743 22.75C23.5636 22.75 24.0625 22.5458 24.4708 22.1375C24.8792 21.7292 25.0833 21.2303 25.0833 20.641L25.0833 7.35904C25.0833 6.76968 24.8792 6.27083 24.4708 5.8625ZM9.80437 7L22.9743 7C23.0791 7 23.1651 7.03364 23.2324 7.10092C23.2997 7.16819 23.3333 7.25424 23.3333 7.35904L23.3333 20.641C23.3333 20.7458 23.2997 20.8318 23.2324 20.8991C23.1651 20.9664 23.0791 21 22.9743 21L9.80437 21L8.05466 21L5.0257 21C4.9209 21 4.83486 20.9664 4.76758 20.8991C4.7003 20.8318 4.66666 20.7458 4.66666 20.641L4.66666 17.4866L4.66666 15.7366L4.66666 12.2634L4.66666 10.5134L4.66666 7.35904C4.66666 7.25424 4.7003 7.1682 4.76758 7.10092C4.83485 7.03364 4.9209 7 5.0257 7L8.05466 7L9.80437 7Z" fill="#7C7266"/>
<path d="M4.66666 17.4866L4.66666 20.641C4.66666 20.7458 4.7003 20.8318 4.76758 20.8991C4.83486 20.9664 4.9209 21 5.0257 21L8.05466 21L9.80437 21L9.80437 7L8.05466 7L5.0257 7C4.9209 7 4.83485 7.03364 4.76758 7.10092C4.7003 7.1682 4.66666 7.25424 4.66666 7.35904L4.66666 10.5134L4.66666 12.2634L4.66666 15.7366L4.66666 17.4866Z" fill="#7C7266"/>
</g>
</g>
</svg>
