<svg width="32" height="33" viewBox="0 0 32 33" fill="none" xmlns="http://www.w3.org/2000/svg">
<path d="M9.22831 17.1667L16.4793 24.418C16.6093 24.5478 16.6773 24.7008 16.6833 24.877C16.6893 25.053 16.6188 25.2146 16.4716 25.3617C16.3248 25.5034 16.1675 25.5757 16 25.5783C15.8324 25.5808 15.6752 25.5086 15.5283 25.3617L7.42065 17.254C7.3042 17.1376 7.22254 17.0187 7.17565 16.8973C7.12854 16.776 7.10498 16.6436 7.10498 16.5C7.10498 16.3564 7.12854 16.224 7.17565 16.1027C7.22254 15.9813 7.3042 15.8624 7.42065 15.746L15.5283 7.63833C15.653 7.51367 15.8046 7.447 15.9833 7.43833C16.162 7.42989 16.3248 7.49656 16.4716 7.63833C16.6188 7.78545 16.6923 7.944 16.6923 8.114C16.6923 8.28422 16.6188 8.44278 16.4716 8.58967L9.22831 15.8333H24.6666C24.8564 15.8333 25.015 15.897 25.1423 16.0243C25.2696 16.1517 25.3333 16.3102 25.3333 16.5C25.3333 16.6898 25.2696 16.8483 25.1423 16.9757C25.015 17.103 24.8564 17.1667 24.6666 17.1667H9.22831Z" fill="#9B9B9B"/>
</svg>
