<svg width="32" height="32" viewBox="0 0 32 32" fill="none" xmlns="http://www.w3.org/2000/svg">
<path d="M9.74367 27.3333C9.08078 27.3333 8.51333 27.0973 8.04133 26.6253C7.56933 26.1533 7.33333 25.5859 7.33333 24.923V8.00001H7C6.71667 8.00001 6.47922 7.90412 6.28767 7.71235C6.09589 7.52057 6 7.28301 6 6.99968C6 6.71612 6.09589 6.47868 6.28767 6.28735C6.47922 6.09579 6.71667 6.00001 7 6.00001H12C12 5.67357 12.115 5.39535 12.345 5.16535C12.5748 4.93557 12.8529 4.82068 13.1793 4.82068H18.8207C19.1471 4.82068 19.4252 4.93557 19.655 5.16535C19.885 5.39535 20 5.67357 20 6.00001H25C25.2833 6.00001 25.5208 6.0959 25.7123 6.28768C25.9041 6.47946 26 6.71701 26 7.00035C26 7.2839 25.9041 7.52135 25.7123 7.71268C25.5208 7.90423 25.2833 8.00001 25 8.00001H24.6667V24.923C24.6667 25.5859 24.4307 26.1533 23.9587 26.6253C23.4867 27.0973 22.9192 27.3333 22.2563 27.3333H9.74367ZM13.539 22.6667C13.8223 22.6667 14.0598 22.5709 14.2513 22.3793C14.4427 22.1876 14.5383 21.95 14.5383 21.6667V11.6667C14.5383 11.3833 14.4424 11.1458 14.2507 10.954C14.0591 10.7625 13.8216 10.6667 13.538 10.6667C13.2547 10.6667 13.0172 10.7625 12.8257 10.954C12.6343 11.1458 12.5387 11.3833 12.5387 11.6667V21.6667C12.5387 21.95 12.6344 22.1876 12.826 22.3793C13.0178 22.5709 13.2554 22.6667 13.539 22.6667ZM18.462 22.6667C18.7453 22.6667 18.9828 22.5709 19.1743 22.3793C19.3657 22.1876 19.4613 21.95 19.4613 21.6667V11.6667C19.4613 11.3833 19.3656 11.1458 19.174 10.954C18.9822 10.7625 18.7446 10.6667 18.461 10.6667C18.1777 10.6667 17.9402 10.7625 17.7487 10.954C17.5573 11.1458 17.4617 11.3833 17.4617 11.6667V21.6667C17.4617 21.95 17.5576 22.1876 17.7493 22.3793C17.9409 22.5709 18.1784 22.6667 18.462 22.6667Z" fill="#EDEDED"/>
</svg>
