<svg width="60" height="60" viewBox="0 0 60 60" fill="none" xmlns="http://www.w3.org/2000/svg">
<path d="M1.875 24.063C1.875 22.5711 2.46763 21.1404 3.52252 20.0855C4.57742 19.0306 6.00816 18.438 7.5 18.438H52.5C53.9918 18.438 55.4226 19.0306 56.4775 20.0855C57.5324 21.1404 58.125 22.5711 58.125 24.063M17.5 8.75049C17.5 9.99369 17.9939 11.186 18.8729 12.0651C19.752 12.9441 20.9443 13.438 22.1875 13.438C23.4307 13.438 24.623 12.9441 25.5021 12.0651C26.3811 11.186 26.875 9.99369 26.875 8.75049C26.875 7.50729 26.3811 6.315 25.5021 5.43593C24.623 4.55685 23.4307 4.06299 22.1875 4.06299C20.9443 4.06299 19.752 4.55685 18.8729 5.43593C17.9939 6.315 17.5 7.50729 17.5 8.75049ZM32.5 8.75049C32.5 9.99369 32.9939 11.186 33.8729 12.0651C34.752 12.9441 35.9443 13.438 37.1875 13.438C38.4307 13.438 39.623 12.9441 40.5021 12.0651C41.3811 11.186 41.875 9.99369 41.875 8.75049C41.875 7.50729 41.3811 6.315 40.5021 5.43593C39.623 4.55685 38.4307 4.06299 37.1875 4.06299C35.9443 4.06299 34.752 4.55685 33.8729 5.43593C32.9939 6.315 32.5 7.50729 32.5 8.75049Z" stroke="#05DFAF" stroke-width="3" stroke-linecap="round" stroke-linejoin="round"/>
<path d="M42.9999 55.9387H16.9999C15.2462 55.9386 13.5168 55.5285 11.9497 54.7412C10.3827 53.9538 9.02139 52.811 7.97457 51.404C6.92774 49.997 6.22436 48.3647 5.92057 46.6375C5.61677 44.9103 5.72099 43.136 6.22489 41.4562L13.1249 18.4387H46.8749L53.7799 41.4562C54.2839 43.1364 54.3881 44.9112 54.084 46.6388C53.7799 48.3663 53.0761 49.9989 52.0287 51.406C50.9813 52.8132 49.6194 53.9559 48.0517 54.7429C46.484 55.5299 44.754 55.9394 42.9999 55.9387Z" stroke="#05DFAF" stroke-width="3" stroke-linecap="round" stroke-linejoin="round"/>
</svg>
