<svg width="205" height="205" viewBox="0 0 205 205" fill="none" xmlns="http://www.w3.org/2000/svg">
<g filter="url(#filter0_d_970_1461)">
<rect x="15" y="15" width="175" height="175" rx="38.2353" fill="#05DFAF" shape-rendering="crispEdges"/>
<g clip-path="url(#clip0_970_1461)">
<path d="M53.557 92.1686C53.557 89.5725 54.5883 87.0828 56.424 85.2471C58.2597 83.4113 60.7495 82.38 63.3456 82.38H141.654C144.251 82.38 146.74 83.4113 148.576 85.2471C150.412 87.0828 151.443 89.5725 151.443 92.1686M80.7475 65.5219C80.7475 67.6853 81.607 69.7601 83.1367 71.2899C84.6665 72.8196 86.7413 73.6791 88.9047 73.6791C91.0681 73.6791 93.1429 72.8196 94.6727 71.2899C96.2025 69.7601 97.0619 67.6853 97.0619 65.5219C97.0619 63.3585 96.2025 61.2837 94.6727 59.7539C93.1429 58.2241 91.0681 57.3647 88.9047 57.3647C86.7413 57.3647 84.6665 58.2241 83.1367 59.7539C81.607 61.2837 80.7475 63.3585 80.7475 65.5219ZM106.85 65.5219C106.85 67.6853 107.71 69.7601 109.24 71.2899C110.769 72.8196 112.844 73.6791 115.008 73.6791C117.171 73.6791 119.246 72.8196 120.776 71.2899C122.305 69.7601 123.165 67.6853 123.165 65.5219C123.165 63.3585 122.305 61.2837 120.776 59.7539C119.246 58.2241 117.171 57.3647 115.008 57.3647C112.844 57.3647 110.769 58.2241 109.24 59.7539C107.71 61.2837 106.85 63.3585 106.85 65.5219Z" stroke="white" stroke-width="6.17647" stroke-linecap="round" stroke-linejoin="round"/>
<path d="M125.123 147.638H79.8776C76.8257 147.638 73.8162 146.925 71.0893 145.554C68.3623 144.184 65.9934 142.196 64.1717 139.747C62.35 137.299 61.126 134.458 60.5974 131.452C60.0687 128.447 60.2501 125.359 61.127 122.436L73.1343 82.381H131.866L143.882 122.436C144.759 125.36 144.94 128.448 144.411 131.455C143.882 134.461 142.657 137.302 140.835 139.751C139.012 142.199 136.642 144.188 133.914 145.557C131.186 146.927 128.175 147.64 125.123 147.638Z" stroke="white" stroke-width="6.17647" stroke-linecap="round" stroke-linejoin="round"/>
</g>
</g>
<defs>
<filter id="filter0_d_970_1461" x="0.294118" y="0.294118" width="204.412" height="204.412" filterUnits="userSpaceOnUse" color-interpolation-filters="sRGB">
<feFlood flood-opacity="0" result="BackgroundImageFix"/>
<feColorMatrix in="SourceAlpha" type="matrix" values="0 0 0 0 0 0 0 0 0 0 0 0 0 0 0 0 0 0 127 0" result="hardAlpha"/>
<feOffset/>
<feGaussianBlur stdDeviation="7.35294"/>
<feComposite in2="hardAlpha" operator="out"/>
<feColorMatrix type="matrix" values="0 0 0 0 0.105882 0 0 0 0 0.105882 0 0 0 0 0.105882 0 0 0 0.2 0"/>
<feBlend mode="normal" in2="BackgroundImageFix" result="effect1_dropShadow_970_1461"/>
<feBlend mode="normal" in="SourceGraphic" in2="effect1_dropShadow_970_1461" result="shape"/>
</filter>
<clipPath id="clip0_970_1461">
<rect width="104.412" height="104.412" fill="white" transform="translate(50.2941 50.2941)"/>
</clipPath>
</defs>
</svg>
