<svg width="34" height="24" viewBox="0 0 34 24" fill="none" xmlns="http://www.w3.org/2000/svg">
<path d="M33.2321 12.3149L32.9383 12.1287C31.9416 11.1385 30.5558 10.7067 28.7014 10.8176C27.1567 10.9127 25.9337 11.5227 24.9966 12.0891C24.9966 12.0733 24.9966 12.0614 24.9966 12.0455C24.9966 11.5623 25.0522 11.0394 25.1038 10.5324C25.1554 10.0175 25.215 9.49067 25.215 8.99554C25.215 8.50041 25.1594 8.00527 24.9807 7.59333C24.937 7.48638 24.8377 7.42696 24.7146 7.42696C24.2143 7.43884 23.2415 7.77949 23.0032 7.98547L22.8761 8.2667C22.8682 8.81729 22.7451 10.3581 22.622 10.5443C22.626 10.5364 22.5585 10.7305 22.5585 10.7305C22.348 12.9289 22.3441 14.8579 22.5386 16.5176C22.5625 16.6839 22.8801 16.9335 23.1303 17.0246C23.4003 17.1236 24.2501 16.8978 24.7385 16.7156C24.7305 16.7156 24.9211 16.6879 24.9211 16.6879C25.076 16.6721 25.1673 16.5413 25.1594 16.3671L25.1713 15.8917C25.5247 14.4618 26.9542 12.7506 28.6418 12.4931C29.5988 12.3426 30.3533 12.5882 30.9489 13.2339C31.0283 13.3487 31.203 14.3826 30.5756 15.563C30.1071 16.4384 29.1699 17.1791 27.935 17.6385C26.7676 18.0822 25.481 18.2604 23.8967 18.205C23.8292 18.1614 22.4116 17.2028 22.4116 17.2028C21.1528 16.3195 19.5883 15.2223 18.1707 14.6876C17.9205 14.5925 17.4758 14.2202 17.2058 14.0023L17.0589 13.8835C16.2409 13.2299 14.6843 12.1961 13.4375 11.3642C13.4375 11.3642 12.8736 10.9879 12.7664 10.9127C12.7664 10.8652 12.7664 10.7701 12.7664 10.7701C12.8021 10.7305 13.5883 10.2631 13.5883 10.2631C14.6883 9.62138 15.1965 9.30846 15.3037 9.14606C15.2799 9.17378 15.4507 9.05891 15.4507 9.05891C15.4626 9.05495 18.1747 7.52203 18.1747 7.52203C20.7915 6.08813 23.7537 4.46014 25.3103 2.85591L25.3857 2.61033L25.4215 2.39247C25.5247 2.04786 25.5287 1.78643 25.4453 1.48143C25.4215 1.39428 25.342 1.2913 25.2348 1.27545C24.0198 1.15266 22.4513 1.88149 21.0257 3.21637C20.7041 3.51741 20.4341 3.66396 20.1482 3.81845L19.9298 3.94124C18.3573 4.83247 14.8153 7.0269 12.957 8.21125C13.0801 6.2228 13.4494 3.39065 13.902 1.03383L13.8504 0.752593L13.6598 0.396099L13.5169 0.142592L13.4772 0.130709C13.1079 -0.0554608 12.8061 0.0197991 12.5837 0.0752538L12.2144 0.209929L11.7181 0.388177C11.6188 0.407982 11.5513 0.467398 11.5156 0.562463C10.6301 2.69747 9.89149 6.21092 9.71677 9.0193C7.94577 7.89833 6.30979 7.09027 5.50768 6.69813L5.48385 6.68624L5.38855 6.66644C5.09868 6.63079 4.74924 6.41689 4.41172 6.21092C4.37598 6.19111 3.73668 5.7752 3.73668 5.7752L2.70823 5.11767L2.43821 5.05429C1.99745 5.12955 1.14769 5.69994 0.897526 6.08813C0.865759 6.13962 0.849876 6.19508 0.849876 6.25053C0.849876 6.33371 0.873701 6.41293 0.897526 6.49611L0.941205 6.70605L0.988855 6.8328C1.48124 7.33586 2.72808 8.1756 3.94713 8.82917L5.36075 9.57781L7.52486 10.7582L7.89415 11.0513L8.14829 11.1979C8.14829 11.1979 8.17608 11.2137 8.19594 11.2256C7.62016 11.6098 4.25686 13.8478 4.25686 13.8478L2.18805 15.2183C1.99348 15.353 1.17548 15.7174 0.992826 15.7887C0.544121 15.9709 0.202628 16.2522 0.0636485 16.5532L0.00805664 16.6721L0.0636485 16.7513L0.222482 16.8701L0.432937 17.0087L0.663246 17.1632L0.877672 17.1989C1.24299 17.2108 1.77905 17.0048 2.78765 16.5651C3.71285 16.1571 6.2264 14.644 7.3025 13.9983L7.75914 13.725C7.94975 13.7409 8.15623 13.5824 8.34286 13.4398C8.55728 13.2695 9.02584 12.9804 9.31174 12.8536C9.31969 12.8536 9.48249 12.7585 9.63735 12.6754C9.63735 12.7229 9.63735 12.7981 9.63735 12.7981C9.685 16.0779 9.87163 18.4624 10.233 20.3004V20.3321L10.2727 20.4073C10.4474 20.6648 10.6499 21.4451 10.8286 22.1304L11.2376 23.5009L11.3528 23.6277C11.587 23.7861 12.2978 24.0594 12.7743 24.004L12.8934 23.9881L12.9689 23.8217C13.0086 23.6158 13.0245 23.4138 13.0245 23.1919C13.0245 22.9424 13.0046 22.6651 12.9848 22.3284L12.953 21.8333C12.8021 19.5438 12.6512 16.2363 12.6512 14.038V13.8637C13.0443 14.1053 14.7478 15.1787 14.7478 15.1787C17.6505 17.0563 22.0383 19.8963 24.6869 20.645C24.8258 20.6846 24.9688 20.6529 25.072 20.5578C25.072 20.5539 25.481 20.2964 25.481 20.2964L25.5565 20.2647C25.7074 20.1934 25.8106 19.936 25.8265 19.6587C28.0621 19.5478 31.1752 18.6882 32.843 16.5968C33.4862 15.7848 33.7801 14.7945 33.7801 13.9468C33.7801 13.2497 33.5855 12.6476 33.2361 12.3189" fill="#F8B500"/>
</svg>
