<svg width="41" height="41" viewBox="0 0 41 41" fill="none" xmlns="http://www.w3.org/2000/svg">
<rect x="0.97998" y="0.979996" width="40" height="40" rx="20" fill="white"/>
<g clip-path="url(#clip0_930_1070)">
<path d="M12.9944 6.90157C12.1562 7.30137 11.5251 7.99691 11.2295 8.8495L5.60659 25.0511C5.30867 25.8994 5.37817 26.8194 5.7988 27.6246C6.2187 28.4246 6.94608 29.027 7.82979 29.3097L26.2733 35.2443C27.1738 35.5276 28.1234 35.4662 28.9629 35.0608C29.8064 34.6537 30.4325 33.9658 30.7265 33.1115L36.355 16.9126C36.9689 15.1518 35.9647 13.2373 34.1249 12.6494L15.68 6.71315C14.7832 6.43246 13.8332 6.49489 12.9944 6.90157Z" fill="white"/>
<path d="M22.0095 22.4598C21.0064 23.5348 19.7549 24.3955 18.3121 24.9312L17.4732 25.241V17.7345L18.2987 18.0401C19.749 18.5708 21.001 19.4354 22.0094 20.502C22.7248 19.3947 23.1717 18.1139 23.2605 16.7227C23.4887 13.119 21.1349 9.82043 17.9047 8.67254L15.2429 7.81762C14.0393 7.43503 12.7631 8.07288 12.3628 9.21982L6.7194 25.431C6.3232 26.5827 6.9948 27.8345 8.19951 28.2151L21.0009 32.3121C22.3101 30.9817 23.1544 29.2199 23.2757 27.2524C23.3903 25.4999 22.9139 23.8481 22.0095 22.4598ZM14.6033 25.7035H13.3353V17.2886H14.6033V25.7035Z" fill="#0098D9"/>
<path d="M21.269 21.4793C20.556 20.6745 19.6934 20.0044 18.6934 19.5119V23.4663C19.6935 22.9702 20.5593 22.2888 21.269 21.4793Z" fill="#E63C2F"/>
<path d="M33.717 13.7325L21.9675 9.97017C23.5465 11.6245 24.5138 13.8209 24.5138 16.2323C24.5193 18.1334 23.9 19.9595 22.8195 21.4793C23.9024 22.9985 24.5305 24.8223 24.5305 26.7266C24.5347 29.0015 23.6836 31.0949 22.2611 32.7137L26.6751 34.1262C27.8807 34.5096 29.1542 33.8784 29.5503 32.7244L35.1969 16.5184C35.5954 15.3652 34.9214 14.1163 33.717 13.7325ZM30.603 25.6758L29.0189 25.6811L25.7553 21.4711L29.0682 17.265L30.671 17.2593L27.3463 21.4793L30.603 25.6758Z" fill="#004B9D"/>
</g>
<defs>
<clipPath id="clip0_930_1070">
<rect width="31.1111" height="28.8889" fill="white" transform="translate(5.42432 6.53555)"/>
</clipPath>
</defs>
</svg>
