<svg width="26" height="22" viewBox="0 0 26 22" fill="none" xmlns="http://www.w3.org/2000/svg">
<g clip-path="url(#clip0_970_955)">
<path d="M11.8523 15.2267H12.9567V16.1178H13.9508V15.2267H15.0479V18.7978H11.8523V15.2267ZM15.3641 22C13.656 22 12.2937 21.7933 12.2937 20.5933C12.2937 19.3933 13.656 19.1578 15.3641 19.1578C17.0723 19.1578 18.53 19.334 18.53 20.5933C18.53 21.8526 17.0797 22 15.3641 22ZM12.9559 17.9141H13.95V17.0016H12.9559V17.9141ZM15.3641 20.0711C14.1048 20.0711 13.5308 20.137 13.5308 20.5867C13.5308 21.0364 14.1048 21.0874 15.3641 21.0874C16.6234 21.0874 17.2856 21.0216 17.2856 20.5867C17.2856 20.1518 16.5863 20.0711 15.3641 20.0711ZM18.4559 19.0037H17.307V17.4134H16.6885V18.8563H15.5396V15.1896H16.6885V16.4415H17.307V15.1534H18.4559V19.0037Z" fill="#666666"/>
<path d="M19.208 20.6229H25.628V21.6244H19.208V20.6229ZM19.5465 15.2638H25.1124V19.9682H23.8902V18.5763H19.5465V17.6044H23.8902V16.2348H19.5465V15.2629V15.2638Z" fill="#666666"/>
<path d="M1.19839 14.9426C0.727286 14.9426 0.372314 15.2819 0.372314 15.7324C0.372314 16.1829 0.727286 16.5231 1.19839 16.5231C1.66948 16.5231 2.02528 16.1763 2.02528 15.7324C2.02528 15.2885 1.66207 14.9426 1.19839 14.9426Z" fill="#666666"/>
<path d="M1.87029 17.0304H0.508057V21.6524H1.87029V17.0304Z" fill="#666666"/>
<path d="M8.52433 15.2201L6.53698 18.9659L4.56199 15.2448L4.54881 15.2201H3.03174V21.6483H4.3948V17.6654L6.01482 20.7102L6.02799 20.7341H7.04514L8.66928 17.6662V21.6483H10.0323V15.2201H8.52433Z" fill="#666666"/>
<path d="M5.44803 4.15424H1.29297V11.7058H5.44803V4.15424Z" fill="#00C4A6"/>
<mask id="mask0_970_955" style="mask-type:luminance" maskUnits="userSpaceOnUse" x="5" y="0" width="13" height="12">
<path d="M5.448 4.15424C9.61212 4.15424 12.9996 7.5417 12.9996 11.7058H17.1546C17.1546 5.24139 11.9133 0 5.448 0V4.15424Z" fill="white"/>
</mask>
<g mask="url(#mask0_970_955)">
<path d="M17.1546 0H5.448V11.7067H17.1546V0Z" fill="url(#paint0_linear_970_955)"/>
</g>
<path d="M24.7064 0V4.15424C20.5423 4.15424 17.1548 7.5417 17.1548 11.7058H12.9998C12.9998 5.24139 18.2411 0 24.7064 0Z" fill="#00C4A6"/>
</g>
<defs>
<linearGradient id="paint0_linear_970_955" x1="5.56368" y1="5.66402" x2="17.2573" y2="5.66402" gradientUnits="userSpaceOnUse">
<stop stop-color="#00C4A6"/>
<stop offset="0.11" stop-color="#0FC6A1"/>
<stop offset="0.31" stop-color="#37CE94"/>
<stop offset="0.6" stop-color="#78DA7F"/>
<stop offset="0.95" stop-color="#D0EB62"/>
<stop offset="1" stop-color="#DFEE5E"/>
</linearGradient>
<clipPath id="clip0_970_955">
<rect width="25.2557" height="22" fill="white" transform="translate(0.372314)"/>
</clipPath>
</defs>
</svg>
