<svg width="40" height="40" viewBox="0 0 40 40" fill="none" xmlns="http://www.w3.org/2000/svg">
<path d="M35.4808 20.2779L35.2024 20.1072C34.258 19.1995 32.9449 18.8037 31.1878 18.9053C29.7242 18.9925 28.5653 19.5517 27.6774 20.0709C27.6774 20.0564 27.6774 20.0455 27.6774 20.031C27.6774 19.588 27.73 19.1087 27.779 18.6439C27.8279 18.1719 27.8843 17.6889 27.8843 17.235C27.8843 16.7811 27.8316 16.3273 27.6623 15.9496C27.6209 15.8516 27.5269 15.7971 27.4102 15.7971C26.9362 15.808 26.0143 16.1203 25.7886 16.3091L25.6682 16.5669C25.6607 17.0716 25.544 18.4841 25.4274 18.6548C25.4312 18.6475 25.3672 18.8255 25.3672 18.8255C25.1678 20.8407 25.164 22.6091 25.3484 24.1305C25.371 24.283 25.672 24.5118 25.909 24.5953C26.1648 24.6861 26.97 24.4791 27.4328 24.3121C27.4253 24.3121 27.6059 24.2866 27.6059 24.2866C27.7526 24.2721 27.8392 24.1523 27.8316 23.9925L27.8429 23.5568C28.1778 22.246 29.5323 20.6773 31.1313 20.4413C32.0381 20.3033 32.753 20.5284 33.3173 21.1203C33.3926 21.2256 33.5581 22.1733 32.9637 23.2554C32.5197 24.0579 31.6317 24.7369 30.4616 25.1581C29.3554 25.5648 28.1364 25.7282 26.6352 25.6774C26.5712 25.6374 25.228 24.7587 25.228 24.7587C24.0353 23.949 22.5529 22.9431 21.2096 22.4529C20.9726 22.3658 20.5512 22.0245 20.2954 21.8248L20.1561 21.7158C19.3811 21.1167 17.9062 20.169 16.7247 19.4064C16.7247 19.4064 16.1905 19.0615 16.0889 18.9925C16.0889 18.9489 16.0889 18.8618 16.0889 18.8618C16.1228 18.8255 16.8677 18.397 16.8677 18.397C17.9099 17.8088 18.3915 17.5219 18.4931 17.373C18.4705 17.3984 18.6323 17.2931 18.6323 17.2931C18.6436 17.2895 21.2134 15.8843 21.2134 15.8843C23.6929 14.5698 26.4997 13.0774 27.9746 11.6068L28.0461 11.3817L28.08 11.182C28.1778 10.8661 28.1815 10.6264 28.1025 10.3468C28.08 10.2669 28.0047 10.1725 27.9031 10.158C26.7518 10.0454 25.2656 10.7136 23.9149 11.9372C23.6101 12.2132 23.3543 12.3476 23.0834 12.4892L22.8764 12.6017C21.3865 13.4187 18.0303 15.4304 16.2695 16.5161C16.3861 14.6933 16.736 12.097 17.165 9.93651L17.116 9.6787L16.9354 9.3519L16.8 9.11951L16.7624 9.10862C16.4125 8.93795 16.1265 9.00695 15.9158 9.05778L15.5659 9.18124L15.0956 9.34464C15.0015 9.36279 14.9376 9.41726 14.9037 9.50441C14.0647 11.4616 13.3648 14.6824 13.1993 17.2568C11.5212 16.2292 9.97108 15.4885 9.21105 15.129L9.18848 15.1181L9.09818 15.0999C8.82351 15.0673 8.49242 14.8712 8.1726 14.6824C8.13874 14.6642 7.53298 14.2829 7.53298 14.2829L6.5585 13.6802L6.30265 13.6221C5.88501 13.6911 5.07984 14.214 4.8428 14.5698C4.8127 14.617 4.79765 14.6678 4.79765 14.7187C4.79765 14.7949 4.82022 14.8676 4.8428 14.9438L4.88419 15.1363L4.92934 15.2525C5.39588 15.7136 6.57731 16.4834 7.73239 17.0825L9.07184 17.7688L11.1224 18.8509L11.4723 19.1196L11.7131 19.2539C11.7131 19.2539 11.7394 19.2685 11.7583 19.2793C11.2127 19.6316 8.02587 21.6831 8.02587 21.6831L6.06561 22.9395C5.88125 23.063 5.10617 23.397 4.9331 23.4624C4.50794 23.6294 4.18436 23.8872 4.05267 24.1632L4 24.2721L4.05267 24.3447L4.20317 24.4537L4.40259 24.5808L4.62081 24.7224L4.82399 24.7551C5.17014 24.766 5.67807 24.5771 6.63374 24.1741C7.51041 23.8001 9.89206 22.413 10.9117 21.8211L11.3444 21.5706C11.525 21.5851 11.7206 21.4399 11.8975 21.3091C12.1006 21.153 12.5446 20.8879 12.8155 20.7717C12.823 20.7717 12.9773 20.6846 13.124 20.6083C13.124 20.6519 13.124 20.7209 13.124 20.7209C13.1692 23.7275 13.346 25.9134 13.6884 27.5982V27.6273L13.726 27.6963C13.8916 27.9323 14.0835 28.6476 14.2528 29.2758L14.6403 30.5322L14.7494 30.6483C14.9714 30.7936 15.6449 31.0441 16.0964 30.9933L16.2093 30.9788L16.2808 30.8263C16.3184 30.6375 16.3335 30.4523 16.3335 30.2489C16.3335 30.0202 16.3146 29.766 16.2958 29.4573L16.2657 29.0035C16.1228 26.9047 15.9798 23.8727 15.9798 21.8574V21.6977C16.3523 21.9192 17.9664 22.9032 17.9664 22.9032C20.7168 24.6243 24.8743 27.2278 27.3839 27.9141C27.5156 27.9504 27.651 27.9214 27.7489 27.8342C27.7489 27.8306 28.1364 27.5946 28.1364 27.5946L28.2079 27.5655C28.3509 27.5002 28.4487 27.2642 28.4637 27.01C30.582 26.9083 33.5318 26.1204 35.1121 24.2031C35.7216 23.4588 36 22.551 36 21.7739C36 21.1348 35.8156 20.5829 35.4845 20.2815" fill="#F8B500"/>
</svg>
