<svg width="40" height="40" viewBox="0 0 40 40" fill="none" xmlns="http://www.w3.org/2000/svg">
<rect width="40" height="40" rx="20" fill="white"/>
<path d="M17.5644 9.44747C17.5644 10.7631 18.6722 11.8709 19.9878 11.8709C21.3034 11.8709 22.4113 10.7631 22.4113 9.44747C22.4113 8.13187 22.4113 9.03202 22.2728 8.89353C22.0651 8.47808 21.8574 8.20111 21.8574 7.71642C21.8574 7.024 20.9572 7.024 20.4725 7.024C19.9878 7.024 19.3646 7.09324 18.88 7.37021C18.4645 7.57794 18.1875 7.8549 17.9106 8.20111C17.6336 8.54732 17.5644 9.03202 17.4951 9.44747" fill="#DC231E"/>
<path d="M32.3807 12.4952C32.173 12.2182 31.8268 12.2182 31.2036 12.3567C30.2342 12.5644 27.3953 13.1184 22.8253 13.2569C20.7481 13.3261 18.4631 13.3261 16.1089 13.1184C14.2394 12.9799 10.6388 12.3567 9.87711 12.2875C9.46166 12.2875 8.49228 12.149 8.00758 12.5644C7.31516 13.1184 7.52289 13.9493 7.93834 14.5725C7.93834 14.5725 8.76924 15.9573 10.7773 16.3727C13.6854 16.8574 18.1861 16.719 19.6402 16.5805C22.9638 16.3035 25.4565 15.8188 27.4646 15.2649C27.4646 15.2649 30.165 14.5032 31.4806 13.7416C31.9653 13.4646 32.6577 12.9107 32.3807 12.426V12.4952ZM22.5484 18.45C20.8866 17.5499 18.9478 17.5499 17.3552 18.45C14.724 19.9041 13.8239 23.2277 15.4165 25.8589C16.6628 27.8669 18.3939 27.3822 18.8786 26.8975C19.5017 26.2051 19.2248 25.5127 18.8786 25.0972C18.2554 24.2663 18.1861 23.7124 18.1861 23.3662C18.1861 22.3276 19.017 21.4274 20.1249 21.4274C21.2328 21.4274 21.2328 21.7044 21.579 22.1198C22.0637 22.743 22.1329 23.5739 22.1329 24.2663C21.9252 28.3516 20.2634 31.8829 20.1942 32.0907C20.1249 32.2984 19.9864 32.7138 20.3326 32.9216C20.6096 33.06 20.8866 32.9216 21.2328 32.6446C21.9944 32.0214 23.4485 30.1519 24.2794 28.3516C24.6949 27.3822 25.7335 24.751 25.3873 22.1891C25.0411 20.1811 23.7255 19.0039 22.6176 18.3808L22.5484 18.45Z" fill="#009178"/>
</svg>
