<svg width="40" height="40" viewBox="0 0 40 40" fill="none" xmlns="http://www.w3.org/2000/svg">
<rect width="40" height="40" rx="20" fill="white"/>
<g clip-path="url(#clip0_930_902)">
<path d="M8.88892 31.1113H31.1109V8.88873H8.88892V31.1113Z" fill="#008FCF"/>
<path d="M8.88892 8.88889L14.443 14.445L19.9998 8.88889H8.88892Z" fill="#008FCF"/>
<path d="M8.88892 8.88889V19.9985L14.443 14.445L8.88892 8.88889Z" fill="#009CD7"/>
<path d="M19.9998 19.9984L14.4457 14.4423L8.88892 19.9984H19.9998Z" fill="#008FCF"/>
<path d="M19.9996 19.9985V8.88889L14.4456 14.4423L19.9996 19.9985Z" fill="#007FC7"/>
<path d="M19.9995 8.88889V19.9985L25.5539 14.445L19.9995 8.88889Z" fill="#006EBA"/>
<path d="M31.1107 19.9984L25.5563 14.4423L19.9995 19.9984H31.1107Z" fill="#004A97"/>
<path d="M8.88892 19.9985L14.443 25.5573L19.9998 19.9985H8.88892Z" fill="#007FC7"/>
<path d="M8.88892 19.9985V31.1084L14.443 25.5573L8.88892 19.9985Z" fill="#006EBA"/>
<path d="M19.9998 31.1084L14.4457 25.5522L8.88892 31.1084H19.9998Z" fill="#005EAE"/>
<path d="M19.9996 31.1084V19.9988L14.4456 25.5522L19.9996 31.1084Z" fill="#00519C"/>
<path d="M19.9995 19.9985L25.5539 25.5573L31.1107 19.9985H19.9995Z" fill="#19358A"/>
<path d="M19.9995 19.9985V31.1084L25.5539 25.5573L19.9995 19.9985Z" fill="#004A97"/>
<path d="M31.1107 31.1084L25.5563 25.5522L19.9995 31.1084H31.1107ZM31.1107 31.1084V19.9988L25.5563 25.5522L31.1107 31.1084Z" fill="#19358A"/>
<path d="M19.9995 8.88889L25.5539 14.445L31.1107 8.88889H19.9995Z" fill="#005EAE"/>
<path d="M31.111 19.9985V8.88889L25.5566 14.4423L31.111 19.9985Z" fill="#00519C"/>
<path d="M31.1108 22.7779L23.9967 16.0019L13.1978 26.8254L17.1388 30.7636L23.9967 24.0076L31.1108 31.0856V22.7779Z" fill="white"/>
</g>
<defs>
<clipPath id="clip0_930_902">
<rect width="22.2222" height="22.2222" fill="white" transform="translate(8.88892 8.88889)"/>
</clipPath>
</defs>
</svg>
