<svg width="41" height="41" viewBox="0 0 41 41" fill="none" xmlns="http://www.w3.org/2000/svg">
<rect x="0.97998" y="0.979996" width="40" height="40" rx="20" fill="#1EAD4A"/>
<g clip-path="url(#clip0_930_1065)">
<path d="M25.3517 9.87978L20.9673 12.0752L16.5923 9.87978L20.9673 18.2103L25.3517 9.87978Z" fill="#FFB819"/>
<path d="M26.8851 16.3255L26.8187 16.2638L29.9441 14.9447V10.5492L24.5064 12.8631C24.5064 12.8631 21.5707 18.4463 21.5012 18.5682C23.8104 18.8403 25.5345 20.7745 25.5345 23.1029C25.5345 25.6304 23.4909 27.6913 20.9665 27.6913C18.439 27.6913 16.3988 25.6304 16.3988 23.1029C16.3988 20.7745 18.1258 18.8403 20.4287 18.5682C20.3624 18.4463 17.4269 12.8631 17.4269 12.8631L12.0048 10.5492V14.9447L15.1143 16.2638L15.0543 16.3254C13.0961 18.0337 11.9731 20.5026 11.9731 23.1029C11.9731 28.0676 16.0033 32.1024 20.9665 32.1024C25.9266 32.1024 29.9694 28.0676 29.9694 23.1029C29.9694 20.5089 28.8433 18.0337 26.8851 16.3255Z" fill="#FFB819"/>
</g>
<defs>
<clipPath id="clip0_930_1065">
<rect width="17.9963" height="22.2223" fill="white" transform="translate(11.9819 9.86885)"/>
</clipPath>
</defs>
</svg>
