<svg width="40" height="40" viewBox="0 0 40 40" fill="none" xmlns="http://www.w3.org/2000/svg">
<rect width="40" height="40" rx="20" fill="white"/>
<path d="M24.9168 34.0797L13.0332 26.2377C13.0332 26.2377 11.5425 25.3693 11.2016 23.7517C10.7222 21.4794 12.3024 19.532 12.3024 19.532L27.7255 29.7131C28.9149 30.499 29.2398 32.1067 28.4751 33.3194C27.6894 34.5657 26.075 34.8401 24.9168 34.0797Z" fill="#38D200"/>
<path d="M13.4257 17.6703C13.4257 17.6703 11.5798 16.5486 11.5798 13.9545C11.5798 11.3691 13.4251 10.2615 13.4251 10.2615L20.0131 5.9227C21.2208 5.13256 22.8357 5.47746 23.6206 6.69233C24.4057 7.9073 24.0632 9.5327 22.8553 10.3225L17.3028 13.9607L26.7637 20.1612C26.7637 20.1612 28.4667 21.1432 28.8021 22.8002C29.2705 25.1124 27.689 27.0176 27.689 27.0176L13.4257 17.6703Z" fill="#0473EA"/>
<path d="M25.9407 11.5806C25.344 11.5806 24.9189 11.7759 24.5046 12.0559L21.4023 14.1535L24.5047 16.2509C24.9232 16.5309 25.3622 16.7265 25.9408 16.7265C27.3097 16.7265 28.4195 15.5743 28.4195 14.1535C28.4195 12.7327 27.3096 11.5803 25.9407 11.5806Z" fill="#38D200"/>
<path d="M13.5897 34.5023C14.1863 34.5023 14.6113 34.307 15.0256 34.027L18.1282 31.9294L15.0256 29.832C14.6071 29.5523 14.1683 29.3564 13.5897 29.3564C12.2208 29.3564 11.1111 30.5085 11.1111 31.9294C11.1111 33.35 12.2208 34.5026 13.5897 34.5023Z" fill="#0473EA"/>
</svg>
