<svg width="40" height="40" viewBox="0 0 40 40" fill="none" xmlns="http://www.w3.org/2000/svg">
<g clip-path="url(#clip0_930_935)">
<path d="M39.9926 19.9981C39.9926 31.0431 31.0358 39.9991 20.0008 39.9991C8.95142 39.9991 -0.000976562 31.0431 -0.000976562 19.9981C-0.000976562 8.95151 8.95142 -0.00108337 19.999 -0.00108337C31.0358 -0.000883374 39.9926 8.95151 39.9926 19.9981Z" fill="white"/>
<path d="M6.37132 33.2591C9.83232 36.7969 14.6591 38.9931 20.0001 38.9931C25.3383 38.9931 30.1625 36.7971 33.6221 33.2605C30.3513 32.0551 25.4629 31.2881 19.9973 31.2881C14.5363 31.2899 9.64612 32.0549 6.37132 33.2591ZM20.0747 7.27114C28.7763 7.27054 36.2017 12.6519 39.0547 20.2045C39.0559 20.1141 39.0581 20.0239 39.0581 19.9331C39.0581 9.40414 30.5263 0.871338 19.9973 0.871338C9.47012 0.871338 0.936523 9.40414 0.936523 19.9321C0.936523 20.1585 0.941923 20.3839 0.949723 20.6085C3.68832 12.8453 11.2215 7.27114 20.0747 7.27114Z" fill="#007BC7"/>
<path d="M20.0704 7.44015C28.8012 7.43935 36.2426 12.8566 39.0512 20.4242C39.053 20.3512 39.053 20.2778 39.054 20.2044C36.201 12.6518 28.7756 7.27035 20.074 7.27095C11.2208 7.27095 3.68757 12.845 0.948975 20.6086C0.951108 20.6727 0.953575 20.7367 0.956375 20.8007C3.65617 13.0378 11.1994 7.44015 20.0704 7.44015Z" fill="#007BC7"/>
<path d="M20.071 7.44008C11.2 7.44008 3.65683 13.0377 0.957031 20.8007C0.959965 20.8667 0.963165 20.9325 0.966631 20.9983C3.62523 13.2323 11.1782 7.60808 20.0692 7.60808C28.823 7.60808 36.2766 13.0557 39.044 20.6301C39.0466 20.5613 39.0502 20.4929 39.0518 20.4241C36.2432 12.8565 28.8018 7.43928 20.071 7.44008Z" fill="#007DC8"/>
<path d="M20.0684 7.60831C11.1774 7.60831 3.62462 13.2327 0.96582 20.9985C0.969687 21.0614 0.973687 21.1243 0.97782 21.1871C3.59762 13.4245 11.158 7.77811 20.0658 7.77811C28.8434 7.77751 36.31 13.2547 39.0354 20.8365C39.0385 20.7677 39.0411 20.699 39.0432 20.6303C36.2758 13.0559 28.8222 7.60831 20.0684 7.60831Z" fill="#007FCA"/>
<path d="M20.0633 7.94632C28.8611 7.94632 36.3405 13.4499 39.0251 21.0355C39.029 20.9693 39.0325 20.903 39.0357 20.8367C36.3103 13.2549 28.8437 7.77752 20.0661 7.77832C11.1585 7.77832 3.59787 13.4247 0.978271 21.1873C0.982271 21.2497 0.985471 21.3123 0.990071 21.3745C3.57007 13.6143 11.1383 7.94632 20.0633 7.94632Z" fill="#0080CB"/>
<path d="M20.0634 7.94611C11.1384 7.94611 3.57023 13.6141 0.990234 21.3741C0.994634 21.4333 1.00043 21.4921 1.00523 21.5511C3.54843 13.8011 11.1236 8.11591 20.0616 8.11591C28.882 8.11531 36.3704 13.6459 39.0124 21.2341C39.017 21.168 39.0212 21.1017 39.025 21.0353C36.3406 13.4497 28.8612 7.94611 20.0634 7.94611Z" fill="#0082CC"/>
<path d="M20.0585 8.28592C28.8991 8.28532 36.3983 13.8427 38.9987 21.4317C39.0039 21.3661 39.0077 21.3001 39.0121 21.2343C36.3701 13.6463 28.8815 8.11552 20.0613 8.11612C11.1233 8.11612 3.54808 13.8011 1.00488 21.5513C1.00995 21.6113 1.01528 21.6711 1.02088 21.7305C3.52608 13.9889 11.1071 8.28592 20.0585 8.28592Z" fill="#0084CD"/>
<path d="M20.0586 8.28613C11.107 8.28613 3.5262 13.9893 1.021 21.7307C1.0264 21.7895 1.0312 21.8483 1.0372 21.9069C3.5044 14.1757 11.091 8.45413 20.056 8.45413C28.914 8.45413 36.422 14.0341 38.9822 21.6193C38.9876 21.5567 38.994 21.4945 38.9988 21.4317C36.3986 13.8429 28.8992 8.28533 20.0586 8.28613Z" fill="#0086CF"/>
<path d="M20.0548 8.6239C28.93 8.6231 36.4464 14.2239 38.9666 21.8041C38.9724 21.7425 38.9778 21.6808 38.983 21.6191C36.4226 14.0339 28.9146 8.4539 20.0566 8.4539C11.0916 8.4539 3.50504 14.1755 1.03784 21.9065C1.04384 21.9641 1.05104 22.0211 1.05764 22.0785C3.48764 14.3607 11.0778 8.6239 20.0548 8.6239Z" fill="#0088D0"/>
<path d="M20.0546 8.62392C11.0776 8.62392 3.48737 14.3607 1.05737 22.0787C1.06351 22.1347 1.06991 22.1908 1.07657 22.2469C3.46977 14.5433 11.064 8.79192 20.052 8.79192C28.9436 8.79192 36.4676 14.4151 38.9472 21.9885C38.9538 21.9272 38.9602 21.8657 38.9664 21.8039C36.446 14.2239 28.9298 8.62312 20.0546 8.62392Z" fill="#008AD2"/>
<path d="M20.0495 8.96178C28.9561 8.96118 36.4865 14.6034 38.9269 22.1686C38.934 22.1086 38.9408 22.0486 38.9475 21.9888C36.4679 14.4152 28.9439 8.79218 20.0523 8.79218C11.0645 8.79218 3.4701 14.5436 1.0769 22.247C1.08344 22.302 1.09017 22.357 1.0971 22.412C3.4541 14.7258 11.0521 8.96178 20.0495 8.96178Z" fill="#008CD3"/>
<path d="M20.0493 8.96173C11.0519 8.96173 3.45368 14.7257 1.09668 22.4117C1.10368 22.4659 1.11188 22.5195 1.11928 22.5735C3.44088 14.9057 11.0411 9.12973 20.0465 9.12973C28.9689 9.12973 36.5061 14.7923 38.9063 22.3463C38.9139 22.2873 38.9197 22.2277 38.9267 22.1683C36.4863 14.6035 28.9559 8.96113 20.0493 8.96173Z" fill="#008FD4"/>
<path d="M20.0448 9.29799C28.9806 9.29799 36.5218 14.9772 38.8826 22.519C38.8904 22.4616 38.8992 22.4044 38.9064 22.3466C36.5064 14.7924 28.969 9.12999 20.0466 9.12999C11.0414 9.12999 3.44098 14.906 1.11938 22.5738C1.12672 22.6281 1.13425 22.6821 1.14198 22.7358C3.42658 15.0862 11.0286 9.29799 20.0448 9.29799Z" fill="#0090D5"/>
<path d="M20.0444 9.2982C11.0282 9.2982 3.4264 15.0864 1.1416 22.7358C1.1492 22.7885 1.15707 22.841 1.1652 22.8934C3.4152 15.2662 11.0184 9.4682 20.0408 9.4682C28.989 9.4676 36.5362 15.1622 38.8584 22.6898C38.8667 22.633 38.8746 22.5761 38.8822 22.5192C36.5212 14.9774 28.9802 9.2982 20.0444 9.2982Z" fill="#0092D7"/>
<path d="M20.039 9.63657C29.0016 9.63597 36.5528 15.349 38.8344 22.8616C38.8432 22.8044 38.8508 22.7468 38.8592 22.6894C36.537 15.1618 28.9898 9.46717 20.0416 9.46777C11.0192 9.46777 3.41602 15.266 1.16602 22.893C1.17428 22.9436 1.18262 22.9942 1.19102 23.0448C3.40702 15.4418 11.0114 9.63657 20.039 9.63657Z" fill="#0094D8"/>
<path d="M20.0382 9.63692C11.0104 9.63692 3.40623 15.4421 1.19043 23.0451C1.19856 23.0958 1.20696 23.1464 1.21563 23.1969C3.39683 15.6197 11.002 9.80692 20.0364 9.80692C29.0078 9.80552 36.5618 15.5303 38.807 23.0229C38.8156 22.9691 38.8254 22.9157 38.8336 22.8619C36.5522 15.3493 29.0008 9.63632 20.0382 9.63692Z" fill="#0096D9"/>
<path d="M20.0325 9.97566C29.0159 9.97566 36.5733 15.7143 38.7791 23.1885C38.7885 23.1333 38.7977 23.0779 38.8067 23.0225C36.5615 15.5299 29.0075 9.80506 20.0361 9.80646C11.0017 9.80646 3.39653 15.6191 1.21533 23.1965C1.2236 23.2462 1.23213 23.296 1.24093 23.3459C3.38853 15.7947 10.9935 9.97566 20.0325 9.97566Z" fill="#0099DB"/>
<path d="M20.0331 9.97559C10.9941 9.97559 3.38906 15.7946 1.24146 23.346C1.25092 23.3963 1.26059 23.4465 1.27046 23.4966C3.38246 15.9716 10.9865 10.1446 20.0323 10.1446C29.0247 10.1438 36.5839 15.8932 38.7529 23.3456C38.7621 23.2933 38.7711 23.241 38.7799 23.1886C36.5739 15.7142 29.0165 9.97559 20.0331 9.97559Z" fill="#009BDC"/>
<path d="M20.0289 10.3135C29.0287 10.3127 36.5911 16.0721 38.7233 23.5007C38.7331 23.4489 38.7437 23.3975 38.7529 23.3457C36.5839 15.8933 29.0247 10.1439 20.0323 10.1447C10.9865 10.1447 3.38251 15.9717 1.27051 23.4967C1.27957 23.5451 1.28884 23.5934 1.29831 23.6417C3.37691 16.1457 10.9793 10.3135 20.0289 10.3135Z" fill="#009DDE"/>
<path d="M20.028 10.3138C10.9784 10.3138 3.37621 16.146 1.29761 23.6418C1.30701 23.6898 1.31561 23.738 1.32561 23.7858C3.37041 16.3202 10.972 10.483 20.0252 10.483C29.0356 10.483 36.5982 16.2538 38.6918 23.6596C38.7021 23.6068 38.7122 23.5539 38.7222 23.501C36.59 16.0726 29.0278 10.313 20.028 10.3138Z" fill="#00A0DF"/>
<path d="M20.0227 10.65C29.0425 10.65 36.6067 16.434 38.6609 23.816C38.6716 23.764 38.6819 23.7118 38.6921 23.6596C36.5985 16.2538 29.0357 10.483 20.0255 10.483C10.9721 10.483 3.37068 16.3204 1.32568 23.7858C1.33508 23.832 1.34588 23.8776 1.35568 23.9236C3.36848 16.4896 10.9675 10.65 20.0227 10.65Z" fill="#00A2E0"/>
<path d="M20.0234 10.6499C10.9684 10.6499 3.36925 16.4897 1.35645 23.9235L1.38645 24.0615C3.36725 16.6619 10.9648 10.8205 20.0216 10.8205C29.0476 10.8197 36.611 16.6099 38.6296 23.9629C38.6402 23.9137 38.6514 23.8649 38.6616 23.8157C36.6074 16.4337 29.0432 10.6499 20.0234 10.6499Z" fill="#00A4E1"/>
<path d="M20.0181 10.9895C29.0497 10.9895 36.6139 16.7861 38.5969 24.1101C38.6079 24.0612 38.6185 24.0122 38.6289 23.9631C36.6103 16.6099 29.0469 10.8199 20.0209 10.8207C10.9641 10.8207 3.36654 16.6621 1.38574 24.0617C1.39561 24.1084 1.40574 24.155 1.41614 24.2015C3.36254 16.8345 10.9581 10.9895 20.0181 10.9895Z" fill="#00A6E3"/>
<path d="M20.018 10.9894C10.9578 10.9894 3.36242 16.8344 1.41602 24.2012C1.42642 24.2456 1.43688 24.29 1.44742 24.3342C3.36222 17.003 10.9534 11.1576 20.0154 11.1576C29.0532 11.1576 36.6182 16.9606 38.5648 24.255C38.576 24.2068 38.586 24.1584 38.5968 24.11C36.6138 16.786 29.0496 10.9894 20.018 10.9894Z" fill="#00A8E4"/>
<path d="M20.0142 11.3267C29.058 11.3267 36.6202 17.1363 38.5302 24.3993C38.5418 24.3513 38.5542 24.3035 38.5654 24.2551C36.6188 16.9607 29.0538 11.1577 20.016 11.1577C10.954 11.1577 3.3628 17.0033 1.448 24.3343C1.45893 24.3796 1.46993 24.4247 1.481 24.4697C3.3632 17.1747 10.9518 11.3267 20.0142 11.3267Z" fill="#00ABE5"/>
<path d="M20.0139 11.3268C10.9515 11.3268 3.36311 17.1748 1.48071 24.4698C1.49125 24.5135 1.50191 24.5572 1.51271 24.6008C3.36331 17.343 10.9471 11.4966 20.0113 11.4966C29.0595 11.4966 36.6213 17.3114 38.4949 24.5432C38.5068 24.4955 38.5184 24.4475 38.5299 24.3992C36.6199 17.1364 29.0577 11.3268 20.0139 11.3268Z" fill="#00ADE7"/>
<path d="M20.0087 11.6658C29.0629 11.6658 36.6237 17.4866 38.4605 24.6846C38.4725 24.6378 38.4833 24.5904 38.4949 24.5434C36.6213 17.3116 29.0595 11.4968 20.0113 11.4968C10.9473 11.4968 3.3635 17.3432 1.5127 24.601C1.52363 24.645 1.5347 24.689 1.5459 24.7328C3.3637 17.5126 10.9443 11.6658 20.0087 11.6658Z" fill="#00B0E8"/>
<path d="M20.0083 11.6655C10.9439 11.6655 3.36325 17.5123 1.54565 24.7325C1.55645 24.7745 1.56845 24.8161 1.57945 24.8579C3.36705 17.6779 10.9429 11.8343 20.0065 11.8343C29.0625 11.8343 36.6211 17.6573 38.4239 24.8189C38.4361 24.7741 38.4482 24.7291 38.4601 24.6841C36.6233 17.4863 29.0623 11.6655 20.0083 11.6655Z" fill="#00B2E9"/>
<path d="M20.0048 12.0036C29.0642 12.0036 36.6204 17.8284 38.3882 24.9548C38.4007 24.9097 38.413 24.8645 38.425 24.8192C36.622 17.6574 29.0636 11.8346 20.0076 11.8346C10.944 11.8346 3.36817 17.678 1.58057 24.8582L1.61397 24.9816C3.37177 17.8436 10.9434 12.0036 20.0048 12.0036Z" fill="#11B5EB"/>
<path d="M20.0038 12.0037C10.9424 12.0037 3.37084 17.8437 1.61304 24.9817C1.62464 25.0237 1.63544 25.0661 1.64724 25.1081C3.37244 18.0119 10.9396 12.1737 20.002 12.1737C29.0648 12.1737 36.619 18.0017 38.3512 25.0893C38.3635 25.0447 38.3756 24.9999 38.3874 24.9551C36.6192 17.8285 29.0632 12.0037 20.0038 12.0037Z" fill="#20B7EC"/>
<path d="M19.9991 12.3415C29.0657 12.3415 36.6171 18.1727 38.3133 25.2235C38.3262 25.1787 38.339 25.1338 38.3517 25.0889C36.6197 18.0013 29.0655 12.1733 20.0025 12.1733C10.9401 12.1733 3.37311 18.0115 1.64771 25.1077C1.65971 25.1494 1.6717 25.1911 1.6837 25.2327C3.3775 18.1779 10.9385 12.3415 19.9991 12.3415Z" fill="#25B9EE"/>
<path d="M19.9988 12.3415C10.9382 12.3415 3.37719 18.1779 1.68359 25.2329C1.69533 25.2725 1.70713 25.3123 1.71899 25.3521C3.38299 18.3417 10.9384 12.5097 19.996 12.5097C29.0656 12.5097 36.6136 18.3437 38.2736 25.3559C38.2869 25.3119 38.3001 25.2678 38.313 25.2235C36.6166 18.1727 29.0654 12.3415 19.9988 12.3415Z" fill="#2EBCEF"/>
<path d="M19.9958 12.6652C29.0534 12.6652 36.5924 18.4672 38.2498 25.4352L38.2733 25.356C36.6133 18.3438 29.0654 12.5098 19.9958 12.5098C10.9382 12.5098 3.38275 18.3418 1.71875 25.3522L1.74235 25.4314C3.40355 18.465 10.9496 12.6652 19.9958 12.6652Z" fill="#36BEF0"/>
<path d="M19.9963 12.6651C10.9501 12.6651 3.40408 18.4649 1.74268 25.4311L1.76648 25.5113C3.42388 18.5887 10.9595 12.8215 19.9961 12.8215C29.0431 12.8215 36.5727 18.5911 38.2261 25.5153C38.2341 25.4887 38.2421 25.4619 38.2501 25.4351C36.5929 18.4671 29.0539 12.6651 19.9963 12.6651Z" fill="#46C0F0"/>
<path d="M19.9958 12.9772C29.0316 12.9772 36.5524 18.715 38.202 25.5962C38.2104 25.5694 38.2178 25.5422 38.226 25.5156C36.5726 18.5914 29.043 12.8218 19.996 12.8218C10.9594 12.8218 3.42356 18.589 1.76636 25.5116C1.77476 25.539 1.78236 25.5664 1.79096 25.5936C3.44296 18.7136 10.9698 12.9772 19.9958 12.9772Z" fill="#51C2F1"/>
<path d="M19.996 12.9772C10.97 12.9772 3.44317 18.7138 1.79077 25.5936C1.79857 25.619 1.80717 25.644 1.81497 25.6692C3.46657 18.8342 10.9828 13.1318 19.996 13.1318C29.019 13.1318 36.5296 18.8358 38.1774 25.673C38.1858 25.6473 38.194 25.6217 38.2022 25.5962C36.5526 18.715 29.0318 12.9772 19.996 12.9772Z" fill="#5AC4F1"/>
<path d="M19.9964 13.2868C29.0072 13.2868 36.5074 18.957 38.153 25.7488L38.1778 25.6724C36.53 18.8352 29.0194 13.1312 19.9964 13.1312C10.9832 13.1312 3.46703 18.8338 1.81543 25.6686L1.84023 25.745C3.48943 18.9548 10.9952 13.2868 19.9964 13.2868Z" fill="#65C7F2"/>
<path d="M19.996 13.287C10.9948 13.287 3.48904 18.955 1.83984 25.7454L1.86484 25.822C3.51204 19.0774 11.007 13.4426 19.996 13.4426C28.9938 13.4426 36.484 19.0804 38.1272 25.8274L38.1526 25.749C36.507 18.9572 29.0068 13.287 19.996 13.287Z" fill="#6DC9F3"/>
<path d="M19.9967 13.598C28.9815 13.598 36.4615 19.1996 38.1035 25.9022L38.1279 25.8272C36.4849 19.0802 28.9945 13.4424 19.9967 13.4424C11.0077 13.4424 3.51268 19.0772 1.86548 25.8216L1.89028 25.8982C3.53568 19.198 11.0199 13.598 19.9967 13.598Z" fill="#74CBF3"/>
<path d="M19.9956 13.5982C11.0188 13.5982 3.53456 19.1982 1.88916 25.8986L1.91396 25.9748C3.55696 19.3194 11.0308 13.7528 19.9956 13.7528C28.9686 13.7528 36.438 19.3208 38.0778 25.9784L38.1026 25.9024C36.4604 19.1998 28.9804 13.5982 19.9956 13.5982Z" fill="#7DCDF4"/>
<path d="M19.9967 13.9091C28.9549 13.9091 36.4145 19.4427 38.0527 26.0549C38.0611 26.0296 38.0695 26.004 38.0779 25.9783C36.4381 19.3205 28.9687 13.7527 19.9957 13.7527C11.0309 13.7527 3.55706 19.3193 1.91406 25.9747C1.92233 26.0003 1.93066 26.0259 1.93906 26.0515C3.58066 19.4415 11.0437 13.9091 19.9967 13.9091Z" fill="#84D0F4"/>
<path d="M19.9966 13.9089C11.0434 13.9089 3.58036 19.4413 1.93896 26.0511C1.9475 26.0757 1.9561 26.1001 1.96476 26.1245C3.60636 19.5611 11.0574 14.0651 19.9956 14.0651C28.9404 14.0651 36.388 19.5625 38.0266 26.1281C38.035 26.1035 38.0442 26.0793 38.0524 26.0545C36.4144 19.4427 28.9548 13.9089 19.9966 13.9089Z" fill="#8BD2F5"/>
<path d="M19.9972 14.2192C28.9278 14.2192 36.3644 19.682 38.0014 26.2022L38.0274 26.1286C36.3888 19.563 28.9412 14.0656 19.9964 14.0656C11.0582 14.0656 3.60738 19.5614 1.96558 26.125L1.99098 26.1974C3.63218 19.6804 11.0724 14.2192 19.9972 14.2192Z" fill="#93D4F5"/>
<path d="M19.9967 14.2192C11.0717 14.2192 3.63168 19.6806 1.99048 26.1974L2.01628 26.2706C3.65728 19.8002 11.0857 14.3756 19.9965 14.3756C28.9123 14.3756 36.3377 19.8026 37.9749 26.2756C37.9835 26.2512 37.9921 26.2267 38.0007 26.2022C36.3639 19.682 28.9273 14.2192 19.9967 14.2192Z" fill="#99D6F6"/>
<path d="M19.9973 14.5308C28.8977 14.5308 36.3121 19.9216 37.9503 26.3474L37.9757 26.2754C36.3385 19.8022 28.9131 14.3754 19.9973 14.3754C11.0863 14.3754 3.65809 19.8002 2.01709 26.2704C2.02562 26.295 2.03422 26.3194 2.04289 26.3436C3.68389 19.9194 11.0997 14.5308 19.9973 14.5308Z" fill="#A0D9F7"/>
<path d="M19.9964 14.5308C11.0986 14.5308 3.68279 19.9194 2.04199 26.3436C2.05039 26.368 2.05893 26.3924 2.06759 26.4166C3.70839 20.039 11.1124 14.6854 19.9956 14.6854C28.883 14.6854 36.2862 20.0414 37.9232 26.4218C37.932 26.3972 37.9407 26.3724 37.9494 26.3474C36.3112 19.9216 28.8968 14.5308 19.9964 14.5308Z" fill="#A6DBF7"/>
<path d="M19.9959 14.8411C28.8685 14.8411 36.2603 20.1609 37.8977 26.4947C37.9062 26.4707 37.9148 26.4465 37.9235 26.4221C36.2863 20.0417 28.8833 14.6857 19.9959 14.6857C11.1127 14.6857 3.70867 20.0393 2.06787 26.4169C2.07667 26.4411 2.08467 26.4657 2.09367 26.4897C3.73427 20.1585 11.1265 14.8411 19.9959 14.8411Z" fill="#ABDDF8"/>
<path d="M19.996 14.8411C11.1266 14.8411 3.73435 20.1585 2.09375 26.4897C2.10242 26.5127 2.11115 26.5358 2.11995 26.5589C3.76335 20.2757 11.1435 14.9967 19.9967 14.9967C28.8529 14.9967 36.2318 20.2789 37.871 26.5653C37.8797 26.5418 37.8887 26.5183 37.8978 26.4947C36.2604 20.1609 28.8686 14.8411 19.996 14.8411Z" fill="#B2E0F8"/>
<path d="M19.9972 15.152C28.8384 15.152 36.2048 20.3962 37.845 26.6342L37.8714 26.565C36.2322 20.2784 28.8534 14.9964 19.9972 14.9964C11.144 14.9964 3.76376 20.2754 2.12036 26.5586C2.12903 26.5817 2.13776 26.6048 2.14656 26.628C3.79136 20.393 11.1592 15.152 19.9972 15.152Z" fill="#B7E2F9"/>
<path d="M19.9974 15.1522C11.1594 15.1522 3.79157 20.3932 2.14697 26.6282L2.17417 26.6996C3.81957 20.5112 11.1742 15.3068 19.9974 15.3068C28.8216 15.3068 36.1764 20.5134 37.8186 26.7046L37.8452 26.6344C36.205 20.3962 28.8386 15.1522 19.9974 15.1522Z" fill="#BCE4F9"/>
<path d="M19.9965 15.4623C28.8049 15.4623 36.1467 20.6323 37.7909 26.7751L37.8177 26.7045C36.1755 20.5133 28.8207 15.3067 19.9965 15.3067C11.1733 15.3067 3.81854 20.5111 2.17334 26.6995L2.19954 26.7683C3.84734 20.6295 11.1887 15.4623 19.9965 15.4623Z" fill="#C1E5FA"/>
<path d="M19.997 15.4621C11.189 15.4621 3.84755 20.6293 2.19995 26.7683C2.20862 26.7915 2.21748 26.8148 2.22655 26.8383C3.87595 20.7467 11.2054 15.6177 19.9972 15.6177C28.7906 15.6177 36.1198 20.7497 37.7649 26.8447L37.7915 26.7749C36.1474 20.6321 28.8055 15.4621 19.997 15.4621Z" fill="#C7E8FA"/>
<path d="M19.997 15.7735C28.7732 15.7735 36.0906 20.8681 37.7382 26.9155C37.7471 26.8921 37.756 26.8685 37.765 26.8449C36.1196 20.7499 28.7906 15.6179 19.9972 15.6179C11.2056 15.6179 3.87616 20.7469 2.22656 26.8385C2.2355 26.8624 2.24456 26.8863 2.25376 26.9101C3.90416 20.8657 11.2204 15.7735 19.997 15.7735Z" fill="#CCEAFB"/>
<path d="M19.9964 15.7733C11.2196 15.7733 3.90357 20.8655 2.25317 26.9101C2.26197 26.9321 2.27084 26.9541 2.27977 26.9763C3.93377 20.9815 11.2368 15.9289 19.9964 15.9289C28.7558 15.9289 36.0596 20.9829 37.7102 26.9827L37.7376 26.9155C36.0902 20.8679 28.7728 15.7733 19.9964 15.7733Z" fill="#D0ECFB"/>
<path d="M19.9964 16.0842C28.738 16.0842 36.0284 21.0996 37.6826 27.05C37.6918 27.0276 37.701 27.0051 37.7102 26.9824C36.0596 20.9826 28.7558 15.9286 19.9964 15.9286C11.237 15.9286 3.93379 20.9814 2.27979 26.976C2.28899 26.9984 2.29819 27.021 2.30739 27.0436C3.96499 21.0968 11.254 16.0842 19.9964 16.0842Z" fill="#D6EEFB"/>
<path d="M19.9976 16.084C11.2552 16.084 3.96619 21.0966 2.30859 27.0436L2.33599 27.1108C3.99699 21.2138 11.2722 16.2396 19.9976 16.2396C28.7214 16.2396 35.9988 21.2166 37.6562 27.117L37.6838 27.0498C36.0296 21.0994 28.7392 16.084 19.9976 16.084Z" fill="#DBF0FC"/>
<path d="M19.9968 16.3944C28.7028 16.3944 35.967 21.3316 37.628 27.1846L37.6554 27.1172C35.998 21.2168 28.7206 16.2398 19.9968 16.2398C11.2716 16.2398 3.99641 21.214 2.33521 27.111L2.36201 27.1766C4.02701 21.329 11.289 16.3944 19.9968 16.3944Z" fill="#E0F2FC"/>
<path d="M19.9969 16.3943C11.2889 16.3943 4.0271 21.3289 2.3623 27.1765C2.37137 27.1992 2.38057 27.2218 2.3899 27.2443C4.0583 21.4453 11.3063 16.5497 19.9969 16.5497C28.6859 16.5497 35.9363 21.4479 37.6007 27.2517L37.6281 27.1845C35.9671 21.3313 28.7029 16.3943 19.9969 16.3943Z" fill="#E5F4FD"/>
<path d="M19.9969 16.7062C28.6679 16.7062 35.9053 21.5648 37.5731 27.3192C37.5823 27.2967 37.5915 27.2742 37.6007 27.2516C35.9363 21.4478 28.6859 16.5496 19.9969 16.5496C11.3061 16.5496 4.05829 21.4452 2.38989 27.2442C2.39923 27.2672 2.40856 27.29 2.41789 27.3128C4.08889 21.5628 11.3229 16.7062 19.9969 16.7062Z" fill="#E9F6FD"/>
<path d="M19.9965 16.7063C11.3225 16.7063 4.08848 21.5629 2.41748 27.3129C2.42655 27.3348 2.43575 27.3566 2.44508 27.3785C4.12068 21.6783 11.3407 16.8609 19.9965 16.8609C28.6493 16.8609 35.8727 21.6811 37.5447 27.3855L37.5727 27.3195C35.9049 21.5649 28.6677 16.7063 19.9965 16.7063Z" fill="#EEF8FE"/>
<path d="M19.9967 17.0164C28.6301 17.0164 35.8391 21.7954 37.5161 27.4512C37.5257 27.4292 37.5353 27.4073 37.5449 27.3854C35.8729 21.6812 28.6493 16.8608 19.9967 16.8608C11.3407 16.8608 4.12091 21.6782 2.44531 27.3784C2.45518 27.4008 2.46491 27.4231 2.47451 27.4454C4.15431 21.7934 11.3587 17.0164 19.9967 17.0164Z" fill="#F2FAFE"/>
<path d="M19.9968 17.0166C11.3588 17.0166 4.15441 21.7936 2.47461 27.4458L2.50341 27.5112C4.18781 21.9096 11.3778 17.172 19.9968 17.172C28.6104 17.172 35.8054 21.9104 37.4882 27.5158L37.5164 27.4514C35.8392 21.7956 28.6302 17.0166 19.9968 17.0166Z" fill="#F7FBFE"/>
<path d="M19.9973 17.3266C28.5939 17.3266 35.7733 22.0262 37.4589 27.5834L37.4885 27.5158C35.8057 21.9104 28.6109 17.172 19.9971 17.172C11.3781 17.172 4.18806 21.9096 2.50366 27.5112L2.53186 27.5756C4.22206 22.0234 11.3975 17.3266 19.9973 17.3266Z" fill="#FCFEFF"/>
<path d="M19.9969 31.2402C14.5231 31.2422 9.62149 32.0138 6.34229 33.2294L6.37089 33.2586C9.64569 32.0544 14.5359 31.2894 19.9969 31.2876C25.4625 31.2876 30.3509 32.0546 33.6217 33.26L33.6501 33.231C30.3747 32.0138 25.4751 31.2402 19.9969 31.2402Z" fill="white"/>
<path d="M6.31421 33.2008L6.34261 33.2298C9.62181 32.0142 14.5234 31.2424 19.9972 31.2406C25.4754 31.2406 30.375 32.0142 33.6504 33.2316L33.6788 33.2024C30.3984 31.9732 25.4872 31.1918 19.9972 31.1918C14.51 31.1938 9.59801 31.9734 6.31421 33.2008Z" fill="white"/>
<path d="M19.9968 31.1426C14.497 31.1454 9.574 31.9328 6.2854 33.1718L6.3138 33.201C9.5974 31.9736 14.5096 31.194 19.9968 31.192C25.4868 31.192 30.3978 31.9734 33.6784 33.2026C33.6879 33.1927 33.6975 33.1829 33.7072 33.1732C30.4224 31.9322 25.5006 31.1426 19.9968 31.1426Z" fill="white"/>
<path d="M6.25708 33.1422C6.26641 33.1522 6.27595 33.162 6.28568 33.1714C9.57428 31.9324 14.4973 31.1448 19.9971 31.1422C25.5009 31.1422 30.4225 31.9318 33.7073 33.1726L33.7359 33.1434C30.4467 31.8906 25.5135 31.0946 19.9971 31.0946C14.4841 31.0966 9.54968 31.8908 6.25708 33.1422Z" fill="white"/>
<path d="M19.9968 31.0454C14.4714 31.0474 9.52563 31.85 6.22803 33.1132L6.25683 33.1424C9.54943 31.891 14.484 31.0968 19.9968 31.095C25.5132 31.095 30.4464 31.891 33.7356 33.1438C33.7451 33.1338 33.7546 33.124 33.7642 33.1146C30.4702 31.8498 25.5256 31.0454 19.9968 31.0454Z" fill="white"/>
<path d="M6.19995 33.0844C6.20928 33.094 6.21868 33.1037 6.22815 33.1134C9.52575 31.8504 14.4714 31.0476 19.997 31.0456C25.5258 31.0456 30.4702 31.85 33.7642 33.1148L33.7928 33.0856C30.494 31.809 25.5384 30.9974 19.997 30.9974C14.4588 30.999 9.50195 31.8092 6.19995 33.0844Z" fill="white"/>
<path d="M19.9971 30.949C14.4463 30.9504 9.47925 31.768 6.17285 33.0546L6.20025 33.0838C9.50225 31.8086 14.4591 30.9984 19.9971 30.9964C25.5385 30.9964 30.494 31.8082 33.7928 33.0846L33.82 33.0554C30.5168 31.7682 25.5505 30.949 19.9971 30.949Z" fill="white"/>
<path d="M6.14526 33.0254C6.15433 33.0353 6.1634 33.0451 6.17246 33.0548C9.47886 31.768 14.4459 30.9506 19.9967 30.9492C25.5501 30.9492 30.5165 31.7684 33.8199 33.056L33.8471 33.0268C30.5395 31.7272 25.5629 30.9006 19.9969 30.9006C14.4337 30.9026 9.45606 31.7274 6.14526 33.0254Z" fill="white"/>
<path d="M19.9967 30.8523C14.4219 30.8543 9.43328 31.6867 6.11768 32.9965C6.12688 33.0065 6.13601 33.0162 6.14508 33.0257C9.45588 31.7277 14.4335 30.9029 19.9965 30.9009C25.5627 30.9009 30.5391 31.7275 33.8467 33.0271L33.8741 32.9977C30.5625 31.6865 25.5751 30.8523 19.9967 30.8523Z" fill="white"/>
<path d="M6.09106 32.9674L6.11766 32.9961C9.43326 31.6863 14.4219 30.8538 19.9967 30.8518C25.5751 30.8518 30.5623 31.6861 33.8745 32.9973L33.9013 32.9685C30.5847 31.6455 25.5873 30.8035 19.9967 30.8035C14.4093 30.8047 9.41066 31.6454 6.09106 32.9674Z" fill="white"/>
<path d="M19.9971 30.7551C14.3971 30.7565 9.38748 31.6037 6.06348 32.9373L6.09168 32.9675C9.41128 31.6455 14.4099 30.8049 19.9971 30.8035C25.5877 30.8035 30.5849 31.6455 33.9017 32.9685L33.9299 32.9381C30.6085 31.6041 25.5993 30.7551 19.9971 30.7551Z" fill="white"/>
<path d="M6.03638 32.9088L6.06298 32.9376C9.38698 31.604 14.3966 30.7568 19.9966 30.7554C25.5988 30.7554 30.6078 31.6042 33.9294 32.9384L33.956 32.9098C30.63 31.5638 25.6112 30.7076 19.9966 30.7076C14.3852 30.709 9.36538 31.5634 6.03638 32.9088Z" fill="white"/>
<path d="M19.9976 30.6592C14.3736 30.6604 9.34317 31.5222 6.00977 32.8794C6.01883 32.8894 6.02803 32.8992 6.03737 32.9088C9.36637 31.5634 14.3862 30.709 19.9976 30.7076C25.6124 30.7076 30.631 31.5636 33.957 32.9098L33.9846 32.8802C30.6542 31.5224 25.624 30.6592 19.9976 30.6592Z" fill="white"/>
<path d="M5.98218 32.85L6.00898 32.879C9.34238 31.522 14.3728 30.66 19.9968 30.6588C25.6232 30.6588 30.6532 31.522 33.9838 32.8796L34.011 32.8504C30.676 31.4806 25.6354 30.609 19.9968 30.609C14.3612 30.6108 9.31998 31.4808 5.98218 32.85Z" fill="white"/>
<path d="M19.9971 30.562C14.3489 30.5628 9.29772 31.4408 5.95532 32.8214L5.98252 32.8506C9.32032 31.4814 14.3615 30.6114 19.9971 30.6098C25.6357 30.6098 30.6763 31.4814 34.0113 32.8512L34.0381 32.8222C30.6985 31.4408 25.6473 30.562 19.9971 30.562Z" fill="white"/>
<path d="M5.92773 32.7915C5.9368 32.8014 5.94593 32.8112 5.95513 32.8209C9.29753 31.4403 14.3487 30.5623 19.9969 30.5615C25.6469 30.5615 30.6981 31.4405 34.0379 32.8217L34.0651 32.7925C30.7215 31.3993 25.6597 30.5131 19.9961 30.5131C14.3361 30.5137 9.27433 31.3991 5.92773 32.7915Z" fill="white"/>
<path d="M19.9959 30.4656C14.3237 30.4662 9.25232 31.359 5.90112 32.7632C5.90992 32.7727 5.91872 32.7822 5.92752 32.7916C9.27412 31.3992 14.3359 30.5138 19.9959 30.5132C25.6595 30.5132 30.7213 31.3996 34.0649 32.7926L34.0915 32.7638C30.7429 31.3592 25.6705 30.4656 19.9959 30.4656Z" fill="white"/>
<path d="M5.87451 32.7339L5.90111 32.7631C9.25231 31.3589 14.3237 30.4661 19.9959 30.4655C25.6705 30.4655 30.7429 31.3591 34.0917 32.7639L34.1185 32.7347C30.7659 31.3177 25.6833 30.4159 19.9969 30.4159C14.3123 30.4175 9.22991 31.3177 5.87451 32.7339Z" fill="white"/>
<path d="M19.997 30.3684C14.3008 30.3692 9.20863 31.277 5.84863 32.7044C5.8573 32.7143 5.86597 32.7241 5.87463 32.7338C9.23003 31.3176 14.3122 30.4174 19.9968 30.4158C25.6832 30.4158 30.7658 31.3176 34.1184 32.7346L34.144 32.7056C30.7864 31.2772 25.6946 30.3684 19.997 30.3684Z" fill="white"/>
<path d="M5.82202 32.6751L5.84822 32.7043C9.20822 31.2769 14.3002 30.3691 19.9966 30.3683C25.694 30.3683 30.7858 31.2771 34.1438 32.7057C34.1525 32.6957 34.1613 32.6858 34.1702 32.6759C30.8084 31.2359 25.7066 30.3191 19.9966 30.3191C14.2886 30.3197 9.18642 31.2357 5.82202 32.6751Z" fill="white"/>
<path d="M19.9963 30.2721C14.2773 30.2729 9.16552 31.1951 5.79712 32.6461L5.82272 32.6751C9.18712 31.2357 14.2893 30.3197 19.9973 30.3191C25.7073 30.3191 30.8093 31.2359 34.1709 32.6759L34.1965 32.6471C30.8297 31.1953 25.7171 30.2721 19.9963 30.2721Z" fill="white"/>
<path d="M5.77051 32.6171L5.79651 32.6463C9.16491 31.1953 14.2767 30.2731 19.9957 30.2723C25.7165 30.2723 30.8291 31.1953 34.1957 32.6473L34.2221 32.6175C30.8513 31.1541 25.7293 30.2219 19.9965 30.2219C14.2657 30.2227 9.14391 31.1541 5.77051 32.6171Z" fill="white"/>
<path d="M19.9965 30.1731C14.2543 30.1737 9.12272 31.1117 5.74512 32.5871L5.77132 32.6165C9.14472 31.1535 14.2665 30.2221 19.9973 30.2213C25.7301 30.2213 30.8521 31.1533 34.2229 32.6169L34.2491 32.5875C30.8739 31.1123 25.7417 30.1731 19.9965 30.1731Z" fill="white"/>
<path d="M5.71899 32.5586L5.74439 32.5874C9.12219 31.112 14.2536 30.174 19.9958 30.1734C25.741 30.1734 30.8732 31.1124 34.2486 32.5878L34.2736 32.5596C30.8938 31.0726 25.7514 30.1256 19.9958 30.1256C14.242 30.1256 9.10079 31.0722 5.71899 32.5586Z" fill="white"/>
<path d="M19.9964 30.0777C14.2308 30.0783 9.07976 31.0317 5.69336 32.5299L5.71936 32.5591C9.10116 31.0727 14.2426 30.1261 19.9962 30.1261C25.7516 30.1261 30.894 31.0731 34.274 32.5601L34.3004 32.5305C30.9158 31.0317 25.7634 30.0777 19.9964 30.0777Z" fill="white"/>
<path d="M5.66675 32.4997L5.69295 32.5293C9.07935 31.0311 14.2303 30.0777 19.9959 30.0771C25.7629 30.0771 30.9153 31.0313 34.3001 32.5299L34.3265 32.5001C30.9377 30.9901 25.7753 30.0289 19.9961 30.0289C14.2191 30.0289 9.05775 30.9899 5.66675 32.4997Z" fill="white"/>
<path d="M19.9955 29.98C14.2075 29.98 9.03627 30.9492 5.64087 32.471L5.66627 32.4998C9.05727 30.99 14.2187 30.029 19.9955 30.029C25.7747 30.029 30.9371 30.9904 34.3259 32.5002L34.3513 32.4716C30.9575 30.9494 25.7857 29.98 19.9955 29.98Z" fill="white"/>
<path d="M5.61523 32.4419C5.6239 32.4519 5.63257 32.4617 5.64123 32.4711C9.03663 30.9493 14.2078 29.9801 19.9958 29.9801C25.786 29.9801 30.9578 30.9495 34.3516 32.4717L34.3776 32.4425C30.9796 30.9087 25.7978 29.9325 19.9958 29.9325C14.1956 29.9325 9.01463 30.9085 5.61523 32.4419Z" fill="white"/>
<path d="M19.9963 29.8833C14.1843 29.8839 8.99393 30.8679 5.59033 32.4133L5.61553 32.4419C9.01513 30.9085 14.1961 29.9325 19.9961 29.9325C25.7981 29.9325 30.9799 30.9087 34.3779 32.4425L34.4035 32.4135C31.0015 30.8679 25.8099 29.8833 19.9963 29.8833Z" fill="white"/>
<path d="M5.56494 32.3837C5.57334 32.3937 5.58181 32.4035 5.59034 32.4133C8.99394 30.8677 14.1843 29.8839 19.9963 29.8833C25.8099 29.8833 31.0015 30.8679 34.4037 32.4135C34.412 32.4037 34.4204 32.394 34.4289 32.3843C31.0219 30.8273 25.8211 29.8349 19.9963 29.8349C14.1737 29.8349 8.97334 30.8271 5.56494 32.3837Z" fill="white"/>
<path d="M19.9962 29.7874C14.1622 29.7874 8.95264 30.7862 5.54004 32.3546L5.56484 32.3838C8.97324 30.8272 14.1736 29.835 19.9962 29.835C25.821 29.835 31.0218 30.8274 34.4288 32.3844L34.4538 32.3548C31.0424 30.7864 25.832 29.7874 19.9962 29.7874Z" fill="white"/>
<path d="M5.53345 32.3464L5.54005 32.3542C8.95265 30.7858 14.1622 29.787 19.9962 29.787C25.832 29.787 31.0424 30.786 34.4538 32.3544L34.462 32.3446C31.0408 30.7684 25.8308 29.7652 19.999 29.7652C14.1662 29.7652 8.95585 30.7694 5.53345 32.3464Z" fill="white"/>
<path d="M20.002 29.7448C14.1702 29.7448 8.95897 30.7534 5.52637 32.3388L5.53297 32.3466C8.95557 30.7694 14.1658 29.7654 19.9984 29.7654C25.8302 29.7654 31.0402 30.7688 34.4614 32.3448L34.4698 32.335C31.0384 30.7518 25.8294 29.7448 20.002 29.7448Z" fill="white"/>
<path d="M5.52051 32.3305L5.52751 32.3387C8.96011 30.7533 14.1713 29.7447 20.0031 29.7447C25.8305 29.7447 31.0395 30.7517 34.4709 32.3349L34.4789 32.3255C31.0371 30.7347 25.8289 29.7239 20.0049 29.7239C14.1753 29.7241 8.96311 30.7369 5.52051 32.3305Z" fill="white"/>
<path d="M20.0076 29.7017C14.179 29.7017 8.96603 30.7199 5.51343 32.3225L5.52043 32.3307C8.96303 30.7369 14.1752 29.7243 20.0048 29.7243C25.829 29.7243 31.037 30.7351 34.4788 32.3259L34.4876 32.3155C31.0362 30.7169 25.8294 29.7017 20.0076 29.7017Z" fill="white"/>
<path d="M5.50513 32.3133L5.51273 32.3223C8.96513 30.7197 14.1783 29.7015 20.0069 29.7015C25.8287 29.7015 31.0355 30.7167 34.4869 32.3151L34.4953 32.3049C31.0339 30.6991 25.8277 29.6799 20.0085 29.6799C14.1807 29.6801 8.96713 30.7029 5.50513 32.3133Z" fill="white"/>
<path d="M20.0119 29.6595C14.1845 29.6595 8.97067 30.6867 5.49927 32.3059L5.50567 32.3133C8.96787 30.7027 14.1813 29.6801 20.0091 29.6801C25.8283 29.6801 31.0345 30.6993 34.4959 32.3051L34.5035 32.2961C31.0331 30.6825 25.8281 29.6595 20.0119 29.6595Z" fill="white"/>
<path d="M5.49219 32.2974L5.49959 32.306C8.97099 30.6866 14.1848 29.6596 20.0122 29.6596C25.8284 29.6596 31.0334 30.6826 34.5038 32.2964L34.5128 32.2858C31.0328 30.665 25.829 29.6382 20.0148 29.6382C14.1882 29.638 8.97319 30.67 5.49219 32.2974Z" fill="white"/>
<path d="M20.0157 29.616C14.1903 29.616 8.97433 30.653 5.48413 32.2882L5.49153 32.297C8.97253 30.6694 14.1875 29.6376 20.0139 29.6376C25.8281 29.6376 31.0319 30.6646 34.5119 32.2852L34.5203 32.2752C31.0307 30.6474 25.8277 29.616 20.0157 29.616Z" fill="white"/>
<path d="M5.47754 32.2802L5.48434 32.2882C8.97474 30.6528 14.1905 29.616 20.0159 29.616C25.8279 29.616 31.0309 30.6474 34.5203 32.2754L34.5287 32.2654C31.0295 30.6302 25.8275 29.5952 20.0183 29.5952C14.1937 29.5954 8.97774 30.6366 5.47754 32.2802Z" fill="white"/>
<path d="M20.021 29.5752C14.1966 29.5752 8.97921 30.621 5.47021 32.2722L5.47721 32.2806C8.97741 30.6368 14.1934 29.5956 20.0182 29.5956C25.8274 29.5956 31.0294 30.6306 34.5286 32.2658L34.537 32.2556C31.0292 30.6138 25.8278 29.5752 20.021 29.5752Z" fill="white"/>
<path d="M5.46167 32.2625L5.47027 32.2724C8.97907 30.621 14.1967 29.5755 20.0211 29.5755C25.8279 29.5755 31.0295 30.6141 34.5373 32.2559L34.5467 32.2447C31.0293 30.5957 25.8273 29.5535 20.0229 29.5535C14.1991 29.5535 8.98007 30.6031 5.46167 32.2625Z" fill="white"/>
<path d="M20.0254 29.5326C14.202 29.5326 8.98219 30.5868 5.45459 32.2538L5.46139 32.262C8.97979 30.6026 14.1988 29.553 20.0226 29.553C25.827 29.553 31.029 30.5952 34.5464 32.2442L34.555 32.2338C31.0292 30.5786 25.8278 29.5326 20.0254 29.5326Z" fill="white"/>
<path d="M5.44751 32.2457L5.45491 32.2543C8.98231 30.5873 14.2023 29.5331 20.0257 29.5331C25.8279 29.5331 31.0295 30.5789 34.5555 32.2345L34.5645 32.2239C31.0289 30.5613 25.8283 29.5113 20.0283 29.5113C14.2051 29.5113 8.98411 30.5705 5.44751 32.2457Z" fill="white"/>
<path d="M20.0322 29.4895C14.209 29.4895 8.98583 30.5531 5.44043 32.2363L5.44803 32.2453C8.98463 30.5701 14.2056 29.5109 20.0286 29.5109C25.8286 29.5109 31.0292 30.5607 34.5648 32.2235C34.568 32.2198 34.5712 32.216 34.5742 32.2121C31.0296 30.5429 25.829 29.4895 20.0322 29.4895Z" fill="white"/>
<path d="M5.43237 32.2267L5.44057 32.2363C8.98597 30.5531 14.2092 29.4895 20.0324 29.4895C25.8292 29.4895 31.03 30.5429 34.5744 32.2121L34.5834 32.2015C31.0306 30.5255 25.8296 29.4687 20.0332 29.4687C14.2114 29.4687 8.98677 30.5363 5.43237 32.2267Z" fill="white"/>
<path d="M20.0364 29.446C14.2136 29.446 8.98723 30.5182 5.42383 32.2168L5.43203 32.2264C8.98623 30.536 14.211 29.4684 20.0328 29.4684C25.8292 29.4684 31.0302 30.5252 34.583 32.2012L34.593 32.1892C31.0314 30.5064 25.8294 29.446 20.0364 29.446Z" fill="white"/>
<path d="M5.41553 32.2072L5.42393 32.217C8.98713 30.5184 14.2135 29.4462 20.0365 29.4462C25.8295 29.4462 31.0315 30.5066 34.5931 32.1896L34.6021 32.1788C31.0319 30.4894 25.8307 29.4256 20.0383 29.4256C14.2155 29.4256 8.98753 30.5012 5.41553 32.2072Z" fill="white"/>
<path d="M20.0409 29.4047C14.2183 29.4047 8.98807 30.4839 5.40747 32.1973L5.41567 32.2071C8.98767 30.5011 14.2157 29.4255 20.0385 29.4255C25.8309 29.4255 31.0321 30.4891 34.6023 32.1787L34.6115 32.1679C31.0323 30.4719 25.8315 29.4047 20.0409 29.4047Z" fill="white"/>
<path d="M5.39941 32.1877L5.40781 32.1975C8.98841 30.4843 14.2186 29.4049 20.0412 29.4049C25.832 29.4049 31.0328 30.4721 34.6116 32.1679L34.6216 32.1561C31.0342 30.4533 25.8342 29.3821 20.045 29.3821C14.2216 29.3823 8.98921 30.4665 5.39941 32.1877Z" fill="white"/>
<path d="M20.0464 29.3626C14.223 29.3626 8.98965 30.4504 5.39185 32.1788L5.39925 32.1878C8.98905 30.4666 14.2214 29.3824 20.0448 29.3824C25.8342 29.3824 31.0343 30.4536 34.6215 32.1564L34.6302 32.1458C31.0338 30.437 25.8337 29.3626 20.0464 29.3626Z" fill="white"/>
<path d="M5.38354 32.1697L5.39155 32.1789C8.98955 30.4505 14.2227 29.3627 20.0461 29.3627C25.8331 29.3627 31.0335 30.4369 34.6299 32.1459L34.6391 32.1347C31.0347 30.4197 25.8345 29.3421 20.0487 29.3421C14.2251 29.3421 8.99055 30.4341 5.38354 32.1697Z" fill="white"/>
<path d="M20.0519 29.3195C14.2267 29.3195 8.99069 30.4163 5.37549 32.1597L5.38389 32.1697C8.99069 30.4341 14.2255 29.3421 20.0493 29.3421C25.8349 29.3421 31.0353 30.4197 34.6397 32.1347C34.6432 32.1307 34.6465 32.1267 34.6497 32.1227C31.0369 30.4009 25.8367 29.3195 20.0519 29.3195Z" fill="white"/>
<path d="M5.36743 32.1505L5.37543 32.1599C8.99063 30.4165 14.2266 29.3197 20.0518 29.3197C25.8366 29.3197 31.0368 30.4011 34.6494 32.1231L34.6586 32.1121C31.0378 30.3837 25.8374 29.2991 20.0544 29.2991C14.229 29.2989 8.99143 30.3997 5.36743 32.1505Z" fill="white"/>
<path d="M20.0556 29.2773C14.2302 29.2773 8.99084 30.3825 5.35864 32.1407L5.36684 32.1503C8.99084 30.3995 14.2284 29.2987 20.0538 29.2987C25.837 29.2987 31.0374 30.3835 34.658 32.1117L34.6678 32.1001C31.0392 30.3657 25.8382 29.2773 20.0556 29.2773Z" fill="white"/>
<path d="M5.35156 32.1313L5.35936 32.1407C8.99156 30.3825 14.2308 29.2773 20.0564 29.2773C25.839 29.2773 31.0398 30.3657 34.6686 32.1003L34.6782 32.0889C31.0412 30.3479 25.8402 29.2565 20.059 29.2565C14.233 29.2565 8.99216 30.3657 5.35156 32.1313Z" fill="white"/>
<path d="M20.0612 29.2352C14.2338 29.2352 8.9904 30.348 5.3418 32.1208L5.351 32.1316C8.9916 30.366 14.2324 29.2568 20.0584 29.2568C25.8396 29.2568 31.0406 30.3482 34.6776 32.0892L34.6884 32.0766C31.0434 30.3294 25.8418 29.2352 20.0612 29.2352Z" fill="white"/>
<path d="M5.33374 32.1107L5.34214 32.1207C8.99074 30.3481 14.2341 29.2351 20.0615 29.2351C25.8421 29.2351 31.0437 30.3295 34.6887 32.0763C34.6921 32.0724 34.6953 32.0686 34.6983 32.0647C31.0451 30.3115 25.8427 29.2143 20.0631 29.2143C14.2363 29.2143 8.99134 30.3309 5.33374 32.1107Z" fill="white"/>
<path d="M20.067 29.193C14.2384 29.193 8.99157 30.3138 5.32617 32.1006L5.33457 32.1108C8.99197 30.3312 14.237 29.2146 20.064 29.2146C25.8434 29.2146 31.046 30.3118 34.6992 32.065L34.7094 32.0528C31.0484 30.2938 25.8452 29.193 20.067 29.193Z" fill="white"/>
<path d="M5.31641 32.0902L5.32541 32.1008C8.99081 30.314 14.2376 29.1932 20.0662 29.1932C25.8446 29.1932 31.0478 30.294 34.7088 32.053L34.719 32.0404C31.05 30.2758 25.8462 29.1726 20.069 29.1726C14.2394 29.1724 8.99021 30.2966 5.31641 32.0902Z" fill="white"/>
<path d="M20.0709 29.1504C14.2411 29.1504 8.98995 30.2792 5.30835 32.0798L5.31675 32.0898C8.99055 30.2962 14.2397 29.172 20.0691 29.172C25.8463 29.172 31.0501 30.2752 34.7191 32.0398L34.7285 32.0282C31.052 30.2572 25.8473 29.1504 20.0709 29.1504Z" fill="white"/>
<path d="M5.29907 32.07L5.30787 32.0804C8.98947 30.2796 14.2407 29.151 20.0705 29.151C25.8469 29.151 31.0515 30.2578 34.7281 32.029L34.7385 32.016C31.0537 30.2396 25.8485 29.1304 20.0741 29.1304C14.2429 29.13 8.98907 30.2622 5.29907 32.07Z" fill="white"/>
<path d="M19.9974 17.3264C11.3974 17.3264 4.22218 22.0232 2.53198 27.5754C3.24161 29.1947 4.17307 30.7073 5.29958 32.0698C8.98958 30.262 14.2434 29.13 20.0746 29.13C25.8492 29.13 31.0542 30.2392 34.739 32.0156C35.8438 30.6694 36.7589 29.1781 37.4588 27.5834C35.7734 22.026 28.594 17.3264 19.9974 17.3264Z" fill="white"/>
<path d="M19.9967 24.7417C13.5341 24.7417 7.53893 25.8367 2.58813 27.6909C5.55613 34.3537 12.2327 38.9929 19.9995 38.9929C27.7627 38.9929 34.4393 34.3511 37.4125 27.6909C32.4627 25.8367 26.4575 24.7417 19.9967 24.7417Z" fill="#007BC7"/>
</g>
<defs>
<clipPath id="clip0_930_935">
<rect width="40" height="40" fill="white"/>
</clipPath>
</defs>
</svg>
